<svg xmlns="http://www.w3.org/2000/svg" xmlns:xlink="http://www.w3.org/1999/xlink" xmlns:lucid="lucid" width="1842" height="1280"><g transform="translate(-29 0)" lucid:page-tab-id="0_0"><path d="M684.73 97.06c0-3.3 2.7-6 6-6h103.4c3.3 0 6 2.7 6 6V364c0 3.3-2.7 6-6 6h-103.4c-3.3 0-6-2.7-6-6z" stroke="#5e5e5e" stroke-width="3" fill="#fff"/><use xlink:href="#a" transform="matrix(1,0,0,1,689.7337278106509,96.06114398422068) translate(18.46296296296297 97.63715277777777)"/><use xlink:href="#b" transform="matrix(1,0,0,1,689.7337278106509,96.06114398422068) translate(30.87037037037037 124.30381944444446)"/><use xlink:href="#c" transform="matrix(1,0,0,1,689.7337278106509,96.06114398422068) translate(14.203703703703702 150.97048611111111)"/><use xlink:href="#d" transform="matrix(1,0,0,1,689.7337278106509,96.06114398422068) translate(28.925925925925927 177.63715277777777)"/><path d="M622.5 231.06H664.73M622.53 231.06h-1.03" stroke="#5e5e5e" stroke-width="2" fill="none"/><path d="M680 231.06l-14.27 4.64v-9.27z" stroke="#5e5e5e" stroke-width="2" fill="#5e5e5e"/><path d="M120 92.55c0-3.08 2.5-5.88 6-5.88h103.5c3 0 6 2.8 6 5.88V134c0 3.35-3 5.87-6 5.87H126c-3.5 0-6-2.52-6-5.88z" stroke="#5e5e5e" stroke-width="3" fill="#fff"/><path d="M140.5 109.63c2 .28 3.5 1.4 3.5 3.64 0 5.6-6.5 4.2-11.5 4.48v-15.4c4.5.28 11-1.12 11 3.64 0 2.23-1.5 3.07-3 3.63zm-6-.56c3-.28 6.5.28 6.5-2.8 0-2.8-3.5-2.24-6.5-2.24v5.04zm0 7c3.5-.28 7.5.84 7.5-2.8 0-3.36-4-2.52-7.5-2.8v5.6M159.5 106.83c0 2.52-1 3.92-3.5 4.2l4.5 6.72H158l-4-6.44h-5v6.45h-2v-15.4c5.5.28 13-1.12 12.5 4.48zm-10.5 2.8c4 0 8.5.84 8.5-2.8 0-3.64-4.5-2.52-8.5-2.8v5.6M174 117.75l-1.5-4.48h-7l-2 4.48h-2l6-15.4h2.5l6 15.4h-2zm-2.5-6.16l-3-7.57c-.5 2.8-1.5 5.04-2.5 7.56h5.5M191 117.75V104.3c-1.5 4.77-3 8.97-5 13.45h-1.5l-5-13.44.5 13.45h-2v-15.4h2.5l5 13.16c1.5-4.75 3-8.67 4.5-13.15h3v15.4h-2M210.5 107.95l-1 4.2h3v1.12h-3l-1 4.48h-1l.5-4.48h-4l-.5 4.48H202l1-4.48h-2v-1.12h2.5l.5-4.2h-2.5v-1.12h3l1-4.2h1l-1 4.2h4l1-4.2h1l-1 4.2h2.5v1.12h-2.5zm-5 0l-1 4.2h4l1-4.2h-4M219.5 102.07c4 0 5 3.64 5 7.84 0 4.5-1 8.13-5 8.13-4.5 0-5.5-3.64-5.5-8.12 0-4.47 1-7.83 5.5-7.83zm0 14.28c2.5 0 3-3.08 3-6.44 0-3.07 0-6.15-3-6.15-3.5 0-3.5 3.08-3.5 6.16 0 3.37.5 6.45 3.5 6.45" stroke="#000" stroke-opacity="0" stroke-width=".06" fill="#333"/><path d="M120 159.47c0-3.36 2.5-6.16 6-6.16h103.5c3 0 6 2.8 6 6.17v41.16c0 3.36-3 6.16-6 6.16H126c-3.5 0-6-2.8-6-6.17z" stroke="#5e5e5e" stroke-width="3" fill="#fff"/><path d="M140.5 176.27c2 .28 3.5 1.4 3.5 3.64 0 5.6-6.5 4.2-11.5 4.5V169c4.5.27 11-1.13 11 3.63 0 2.24-1.5 3.08-3 3.64zm-6-.56c3-.27 6.5.57 6.5-2.8 0-2.8-3.5-2.23-6.5-2.23v5.04zm0 7c3.5 0 7.5.85 7.5-2.8 0-3.35-4-2.5-7.5-2.8v5.6M159.5 173.47c0 2.52-1 3.92-3.5 4.2l4.5 6.72H158l-4-6.45h-5v6.44h-2V169c5.5.27 13-1.13 12.5 4.47zm-10.5 2.8c4 0 8.5.84 8.5-2.8 0-3.64-4.5-2.52-8.5-2.8v5.6M174 184.4l-1.5-4.5h-7l-2 4.5h-2l6-15.4h2.5l6 15.4h-2zm-2.5-6.17l-3-7.56c-.5 2.8-1.5 5.04-2.5 7.56h5.5M191 184.4v-13.45c-1.5 4.76-3 8.96-5 13.44h-1.5l-5-13.45.5 13.44h-2V169h2.5l5 13.15c1.5-4.76 3-8.68 4.5-13.16h3v15.4h-2M210.5 174.87l-1 3.92h3v1.1h-3l-1 4.5h-1l.5-4.5h-4l-.5 4.5H202l1-4.5h-2v-1.1h2.5l.5-3.93h-2.5v-1.4h3l1-4.2h1l-1 4.2h4l1-4.2h1l-1 4.2h2.5v1.4h-2.5zm-5 0l-1 3.92h4l1-3.93h-4M215 184.4v-1.7h3.5v-11.75l-3 2.52v-1.96l3.5-2.5h1.5v13.7h4v1.7H215" stroke="#000" stroke-opacity="0" stroke-width=".06" fill="#333"/><path d="M120 319.35c0-3.36 2.5-5.88 6-5.88h103.5c3 0 6 2.52 6 5.88v41.44c0 3.07-3 5.87-6 5.87H126c-3.5 0-6-2.8-6-5.88z" stroke="#5e5e5e" stroke-width="3" fill="#fff"/><path d="M156 328.03c2 .28 3.5 1.4 3.5 3.64 0 5.6-6.5 4.2-11.5 4.48v-15.4c4.5.28 10.5-1.12 10.5 3.64 0 2.23-1 3.07-2.5 3.63zm-6-.56c3-.28 6.5.56 6.5-2.8 0-2.8-3.5-2.24-6.5-2.24v5.04zm0 7c3-.28 7.5.84 7.5-2.8 0-3.36-4.5-2.52-7.5-2.8v5.6M175 325.23c0 2.52-1.5 3.92-3.5 4.2l4.5 6.72h-2.5l-4-6.44h-5v6.45h-2v-15.4c5.5.28 13-1.12 12.5 4.48zm-10.5 2.8c4 0 8.5.84 8.5-2.8 0-3.64-5-2.52-8.5-2.8v5.6M189.5 336.15l-2-4.48h-7l-1.5 4.48h-2l6-15.4h2.5l6 15.4h-2zM187 330l-3-7.57c-.5 2.8-1.5 5.04-2.5 7.56h5.5M206.5 336.15V322.7c-1.5 4.77-3.5 8.97-5 13.45H200l-5-13.44v13.45h-1.5v-15.4h2.5l5 13.16c1-4.75 3-8.67 4.5-13.15h2.5v15.4h-1.5M169 353.23l-.5 3.92h2.5v1.12h-3l-1 4.48h-1l1-4.48h-4l-1 4.48h-1l1-4.48h-2.5v-1.12h2.5l1-3.92h-3v-1.12h3l1-4.47h1.5l-1 4.48h3.5l1-4.47h1.5l-1 4.48h2v1.13H169zm-5 0l-1 3.92h4l1-3.92h-4M178.5 352.95c3 0 4.5 1.68 4.5 4.76 0 3.37-1.5 5.33-5 5.33-4 0-5-3.36-5-7.56-.5-5.6 3-10.08 8-7.56 1 .57 1.5 1.4 2 2.53l-2 .28c-.5-2.5-4-2.23-5-.27-.5 1.12-1 2.52-1 4.48.5-1.1 2-1.95 3.5-1.95zm-.5 8.4c2.5 0 3-1.4 3-3.64 0-1.95-1-3.35-3-3.35-1.5 0-3 1.12-3 3.08 0 2.24 1 3.92 3 3.92M192 354.9c2 .3 3.5 1.4 3.5 3.65 0 5.6-8.5 5.6-10 1.96-.5-.55-.5-1.1-.5-1.67l2-.28c.5 1.68 1.5 2.8 3.5 2.8s3-.84 3-2.8c0-2.24-2-2.8-5-2.8v-1.68c2.5 0 4.5-.28 4.5-2.52 0-1.68-1-2.52-2.5-2.52-2 0-3 .84-3 2.52l-2-.28c0-2.52 2-3.92 5-3.92 2.5 0 4.5 1.12 4.5 3.92 0 2.24-1 3.36-3 3.64" stroke="#000" stroke-opacity="0" stroke-width=".06" fill="#333"/><path d="M293 92.55c0-3.08 3-5.88 6-5.88h315c3.5 0 6 2.8 6 5.88V360.8c0 3.07-2.5 5.87-6 5.87H299c-3 0-6-2.8-6-5.88z" stroke="#5e5e5e" stroke-width="3" fill="#fff"/><path d="M387 182.7c-10.5 0-15-5.87-15.5-15.95-1-13.16 12-19.04 23.5-13.72 2.5 1.12 3.5 3.08 4.5 5.32l-3.5 1.12c-2-3.08-5-4.76-9.5-4.76-7.5 0-11 4.77-11 12.05 0 7.56 3.5 12.32 11.5 12.6 4 0 7.5-1.4 9.5-3.36v-5.6h-9v-3.37h13v10.64c-3 3.08-7.5 5.04-13.5 5.04M426.5 158.9c-.5-5.87-15-6.7-15.5.3 2 9.23 19.5 1.67 20.5 14.55 0 9.8-15 10.92-22 7-2-1.4-3-3.36-4-5.88l4-.84c1 7 17.5 7.84 17.5 0 0-9.52-19-1.68-20-14.56-.5-10.08 18-10.36 22-4.2 1 .84 1 1.96 1.5 3.08M449.5 182.15v-30.52h4.5v30.52h-4.5M481.5 182.15L465 156.1l.5 26.05h-4v-30.52h5l16.5 26.32-.5-26.32h4v30.52h-5M505.5 155v27.15h-4V155H491v-3.37h25V155h-10.5M532.5 155v27.15h-4V155H518v-3.37h25V155h-10.5M396.5 219.95c4 .84 7 2.52 7 7.28 0 10.92-17 11.2-20.5 3.64 0-1.12-.5-1.96-.5-3.08l4-.57c.5 3.36 2.5 5.6 6.5 5.6s6.5-1.96 6.5-5.88c0-4.48-4.5-5.6-9.5-5.04v-3.63c4.5.28 8.5-.56 8.5-5.04 0-3.36-2-5.32-5.5-5.32s-6 1.7-6 5.05l-4-.56c.5-5.05 4.5-7.57 10-7.85 6 0 9.5 2.8 9.5 8.12 0 4.48-2.5 6.44-6 7.28M418 204.55c10-.84 11.5 10.92 5 16.24l-7.5 7c-1.5 1.4-3 2.5-3.5 4.47h16v3.36h-20.5c.5-12.32 16-11.76 16-22.4 0-3.64-2-5.32-5.5-5.32s-5.5 1.7-6 5.05l-4-.56c.5-5.05 4-7.3 10-7.85M446 205.1c11 0 24-1.95 24 9.25 0 9.52-9.5 9.8-19.5 9.24v12.03H446V205.1zm4.5 15.4c7 0 15 1.4 15-6.15 0-7.28-8.5-5.88-15-6.16v12.3M476 235.63V205.1h23v3.37h-19v9.8h17.5v3.36H480v10.64h20v3.36h-24M507.5 214.63h-3l-.5-9.52h4M527 218c-.5-4.2-11-4.77-11 0 2 6.43 14.5 1.4 15 11.2.5 9.5-18.5 8.95-19.5.83l3.5-.56c.5 4.48 12 5.6 12 0-1.5-7-14-1.96-14.5-11.2-.5-7 10-7.84 15-5.04 1.5.84 2.5 2.24 3 4.2M377.5 298.07c-5-5.04-8-11.2-8-20.72s3.5-15.68 8-20.72h4c-5 5.04-8 11.48-8 20.72 0 9.52 3 15.68 8 20.72h-4M394 258.03c10-.84 11.5 10.64 5 16.24l-7.5 6.72c-1.5 1.4-3 2.8-3.5 4.47h16v3.36h-20.5c.5-12.04 16-11.48 16-22.4 0-3.36-2-5.32-5.5-5.32s-6 1.97-6 5.05l-4-.28c.5-5.04 4-7.56 10-7.84M412.5 271.47c6-4.48 17-1.12 16.5 7.56 1.5 12.04-19 14-21 3.08l4-.55c.5 3.08 2.5 4.76 6 4.76 4.5-.27 6.5-2.8 7-7.27.5-6.72-9-8.12-12.5-4.2H409l1-16.52h17v3.37h-13.5M443 258.03c8.5 0 10.5 6.72 10.5 15.68 0 8.7-2 15.7-10.5 15.7-8 0-10.5-7-10.5-15.7 0-8.95 2-15.67 10.5-15.67zm0 28.28c6 0 7-6.15 7-12.6 0-6.7-.5-12.6-7-12.6-6 0-6.5 5.9-6.5 12.6 0 6.45.5 12.6 6.5 12.6M494 266.7c-1.5-3.35-4.5-5.3-9-5.3-7.5 0-11 4.75-11 12.03 0 7.56 4 12.6 11 12.6 5.5 0 8-3.08 10-6.44l3 1.67c-2 4.76-6 8.12-13 8.12-10 0-14.5-6.17-15-15.97-.5-12.88 12.5-18.76 23-13.72 2.5 1.13 4 3.37 5 5.9M526 266.7c-1.5-3.35-4.5-5.3-9-5.3-7.5 0-11 4.75-11 12.03 0 7.56 4 12.6 11 12.6 5.5 0 8-3.08 10-6.44l3 1.67c-2 4.76-6 8.12-13 8.12-10 0-14.5-6.17-15-15.97-.5-12.88 12-18.76 23-13.72 2.5 1.13 4 3.37 5 5.9M536 256.63c4.5 5.04 8 11.48 8 20.72 0 9.52-3.5 15.68-8 20.72h-4c4.5-5.04 8-11.2 8-20.72 0-9.24-3.5-15.68-8-20.72h4" stroke="#000" stroke-opacity="0" stroke-width=".12" fill="#333"/><path d="M238 113.27h35" stroke="#5e5e5e" stroke-width="2" fill-opacity="0"/><path d="M238 114.4h-1v-1.97h1z" stroke="#000" stroke-opacity="0" fill="#5e5e5e"/><path d="M288.5 113.27l-14.5 4.76v-9.24z" stroke="#5e5e5e" stroke-width="2" fill="#5e5e5e"/><path d="M238 179.9h35" stroke="#5e5e5e" stroke-width="2" fill-opacity="0"/><path d="M238 181.03h-1v-1.96h1z" stroke="#000" stroke-opacity="0" fill="#5e5e5e"/><path d="M288.5 179.9l-14.5 4.77v-9.24z" stroke="#5e5e5e" stroke-width="2" fill="#5e5e5e"/><path d="M238 340.07h35" stroke="#5e5e5e" stroke-width="2" fill-opacity="0"/><path d="M238 340.9h-1v-1.95h1z" stroke="#000" stroke-opacity="0" fill="#5e5e5e"/><path d="M288.5 340.07l-14.5 4.48v-9.24z" stroke="#5e5e5e" stroke-width="2" fill="#5e5e5e"/><path d="M290.5 226.67H270c-3 0-6-2.8-6-5.88V119.42c0-3.36-2.5-6.16-6-6.16h-2.5" stroke="#5e5e5e" stroke-width="2" fill-opacity="0"/><path d="M291.5 227.8h-1v-2.25h1z" stroke="#000" stroke-opacity="0" fill="#5e5e5e"/><path d="M240 113.27l14.5-4.48v9.23z" stroke="#5e5e5e" stroke-width="2" fill="#5e5e5e"/><path d="M290.5 226.67H270c-3 0-6-2.8-6-5.88v-34.73c0-3.36-2.5-6.16-6-6.16h-2.5" stroke="#5e5e5e" stroke-width="2" fill-opacity="0"/><path d="M291.5 227.8h-1v-2.25h1z" stroke="#000" stroke-opacity="0" fill="#5e5e5e"/><path d="M240 179.9l14.5-4.47v9.24z" stroke="#5e5e5e" stroke-width="2" fill="#5e5e5e"/><path d="M290.5 226.67H270c-3 0-6 2.8-6 5.88V333.9c0 3.37-2.5 6.17-6 6.17h-2.5" stroke="#5e5e5e" stroke-width="2" fill-opacity="0"/><path d="M291.5 227.8h-1v-2.25h1z" stroke="#000" stroke-opacity="0" fill="#5e5e5e"/><path d="M240 340.07l14.5-4.76v9.25z" stroke="#5e5e5e" stroke-width="2" fill="#5e5e5e"/><path d="M167.5 226.1c0-3.35 3-6.15 6-6.15h8c3.5 0 6 2.8 6 6.16v7.85c0 3.36-2.5 6.16-6 6.16h-8c-3 0-6-2.8-6-6.15zm0 33.33c0-3.36 3-6.16 6-6.16h8c3.5 0 6 2.8 6 6.16v7.84c0 3.36-2.5 6.16-6 6.16h-8c-3 0-6-2.8-6-6.16zm0 33.32c0-3.36 3-6.16 6-6.16h8c3.5 0 6 2.8 6 6.15v7.84c0 3.35-2.5 6.15-6 6.15h-8c-3 0-6-2.8-6-6.16zM1064.73 25.88c0-3.08 2.5-5.88 6-5.88h103.5c3 0 6 2.8 6 5.88v41.44c0 3.36-3 5.88-6 5.88h-103.5c-3.5 0-6-2.52-6-5.88z" stroke="#5e5e5e" stroke-width="3" fill="#fff"/><path d="M1085.23 42.96c2 .28 3.5 1.4 3.5 3.64 0 5.6-6.5 4.2-11.5 4.48v-15.4c4.5.28 11-1.12 11 3.64 0 2.24-1.5 3.08-3 3.64zm-6-.56c3-.28 6.5.28 6.5-2.8 0-2.8-3.5-2.24-6.5-2.24v5.04zm0 7c3.5-.28 7.5.84 7.5-2.8 0-3.36-4-2.52-7.5-2.8v5.6M1104.23 40.16c0 2.52-1 3.92-3.5 4.2l4.5 6.72h-2.5l-4-6.44h-5v6.44h-2v-15.4c5.5.28 13-1.12 12.5 4.48zm-10.5 2.8c4 0 8.5.84 8.5-2.8 0-3.64-4.5-2.52-8.5-2.8v5.6M1118.73 51.08l-1.5-4.48h-7l-2 4.48h-2l6-15.4h2.5l6 15.4h-2zm-2.5-6.16l-3-7.56c-.5 2.8-1.5 5.04-2.5 7.56h5.5M1135.73 51.08V37.64c-1.5 4.76-3 8.96-5 13.44h-1.5l-5-13.44.5 13.44h-2v-15.4h2.5l5 13.16c1.5-4.76 3-8.68 4.5-13.16h3v15.4h-2M1155.23 41.28l-1 4.2h3v1.12h-3l-1 4.48h-1l.5-4.48h-4l-.5 4.48h-1.5l1-4.48h-2v-1.12h2.5l.5-4.2h-2.5v-1.12h3l1-4.2h1l-1 4.2h4l1-4.2h1l-1 4.2h2.5v1.12h-2.5zm-5 0l-1 4.2h4l1-4.2h-4M1164.23 35.4c4 0 5 3.64 5 7.84 0 4.48-1 8.12-5 8.12-4.5 0-5.5-3.64-5.5-8.12 0-4.48 1-7.84 5.5-7.84zm0 14.28c2.5 0 3-3.08 3-6.44 0-3.08 0-6.16-3-6.16-3.5 0-3.5 3.08-3.5 6.16 0 3.36.5 6.44 3.5 6.44" stroke="#000" stroke-opacity="0" stroke-width=".06" fill="#333"/><path d="M1064.73 92.8c0-3.36 2.5-6.16 6-6.16h103.5c3 0 6 2.8 6 6.16v41.16c0 3.36-3 6.16-6 6.16h-103.5c-3.5 0-6-2.8-6-6.16z" stroke="#5e5e5e" stroke-width="3" fill="#fff"/><path d="M1085.23 109.6c2 .28 3.5 1.4 3.5 3.64 0 5.6-6.5 4.2-11.5 4.48v-15.4c4.5.28 11-1.12 11 3.64 0 2.24-1.5 3.08-3 3.64zm-6-.56c3-.28 6.5.56 6.5-2.8 0-2.8-3.5-2.24-6.5-2.24v5.04zm0 7c3.5 0 7.5.84 7.5-2.8 0-3.36-4-2.52-7.5-2.8v5.6M1104.23 106.8c0 2.52-1 3.92-3.5 4.2l4.5 6.72h-2.5l-4-6.44h-5v6.44h-2v-15.4c5.5.28 13-1.12 12.5 4.48zm-10.5 2.8c4 0 8.5.84 8.5-2.8 0-3.64-4.5-2.52-8.5-2.8v5.6M1118.73 117.72l-1.5-4.48h-7l-2 4.48h-2l6-15.4h2.5l6 15.4h-2zm-2.5-6.16l-3-7.56c-.5 2.8-1.5 5.04-2.5 7.56h5.5M1135.73 117.72v-13.44c-1.5 4.76-3 8.96-5 13.44h-1.5l-5-13.44.5 13.44h-2v-15.4h2.5l5 13.16c1.5-4.76 3-8.68 4.5-13.16h3v15.4h-2M1155.23 108.2l-1 3.92h3v1.12h-3l-1 4.48h-1l.5-4.48h-4l-.5 4.48h-1.5l1-4.48h-2v-1.12h2.5l.5-3.92h-2.5v-1.4h3l1-4.2h1l-1 4.2h4l1-4.2h1l-1 4.2h2.5v1.4h-2.5zm-5 0l-1 3.92h4l1-3.92h-4M1159.73 117.72v-1.68h3.5v-11.76l-3 2.52v-1.96l3.5-2.52h1.5v13.72h4v1.68h-9.5" stroke="#000" stroke-opacity="0" stroke-width=".06" fill="#333"/><path d="M1064.73 252.68c0-3.36 2.5-5.88 6-5.88h103.5c3 0 6 2.52 6 5.88v41.44c0 3.08-3 5.88-6 5.88h-103.5c-3.5 0-6-2.8-6-5.88z" stroke="#5e5e5e" stroke-width="3" fill="#fff"/><path d="M1100.73 261.36c2 .28 3.5 1.4 3.5 3.64 0 5.6-6.5 4.2-11.5 4.48v-15.4c4.5.28 10.5-1.12 10.5 3.64 0 2.24-1 3.08-2.5 3.64zm-6-.56c3-.28 6.5.56 6.5-2.8 0-2.8-3.5-2.24-6.5-2.24v5.04zm0 7c3-.28 7.5.84 7.5-2.8 0-3.36-4.5-2.52-7.5-2.8v5.6M1119.73 258.56c0 2.52-1.5 3.92-3.5 4.2l4.5 6.72h-2.5l-4-6.44h-5v6.44h-2v-15.4c5.5.28 13-1.12 12.5 4.48zm-10.5 2.8c4 0 8.5.84 8.5-2.8 0-3.64-5-2.52-8.5-2.8v5.6M1134.23 269.48l-2-4.48h-7l-1.5 4.48h-2l6-15.4h2.5l6 15.4h-2zm-2.5-6.16l-3-7.56c-.5 2.8-1.5 5.04-2.5 7.56h5.5M1151.23 269.48v-13.44c-1.5 4.76-3.5 8.96-5 13.44h-1.5l-5-13.44v13.44h-1.5v-15.4h2.5l5 13.16c1-4.76 3-8.68 4.5-13.16h2.5v15.4h-1.5M1113.73 286.56l-.5 3.92h2.5v1.12h-3l-1 4.48h-1l1-4.48h-4l-1 4.48h-1l1-4.48h-2.5v-1.12h2.5l1-3.92h-3v-1.12h3l1-4.48h1.5l-1 4.48h3.5l1-4.48h1.5l-1 4.48h2v1.12h-2.5zm-5 0l-1 3.92h4l1-3.92h-4M1123.23 286.28c3 0 4.5 1.68 4.5 4.76 0 3.36-1.5 5.32-5 5.32-4 0-5-3.36-5-7.56-.5-5.6 3-10.08 8-7.56 1 .56 1.5 1.4 2 2.52l-2 .28c-.5-2.52-4-2.24-5-.28-.5 1.12-1 2.52-1 4.48.5-1.12 2-1.96 3.5-1.96zm-.5 8.4c2.5 0 3-1.4 3-3.64 0-1.96-1-3.36-3-3.36-1.5 0-3 1.12-3 3.08 0 2.24 1 3.92 3 3.92M1136.73 288.24c2 .28 3.5 1.4 3.5 3.64 0 5.6-8.5 5.6-10 1.96-.5-.56-.5-1.12-.5-1.68l2-.28c.5 1.68 1.5 2.8 3.5 2.8s3-.84 3-2.8c0-2.24-2-2.8-5-2.8v-1.68c2.5 0 4.5-.28 4.5-2.52 0-1.68-1-2.52-2.5-2.52-2 0-3 .84-3 2.52l-2-.28c0-2.52 2-3.92 5-3.92 2.5 0 4.5 1.12 4.5 3.92 0 2.24-1 3.36-3 3.64" stroke="#000" stroke-opacity="0" stroke-width=".06" fill="#333"/><path d="M1237.73 25.88c0-3.08 3-5.88 6-5.88h315c3.5 0 6 2.8 6 5.88v268.24c0 3.08-2.5 5.88-6 5.88h-315c-3 0-6-2.8-6-5.88z" stroke="#5e5e5e" stroke-width="3" fill="#fff"/><path d="M1349.23 93.64c-1.5-3.64-4.5-5.6-9-5.6-7.5 0-11 4.76-11 12.04 0 7.56 4 12.6 11 12.6 5.5 0 8-3.08 10-6.44l3 1.68c-2 4.76-6 8.12-13 8.12-10 0-14.5-6.16-15-15.96-.5-12.88 12-18.76 23-13.72 2.5 1.12 4 3.36 5 5.88M1370.73 88.32v27.16h-4V88.32h-10.5v-3.36h25v3.36h-10.5M1417.23 115.48l-16.5-26.04v26.04h-3.5V84.96h5l16 26.32V84.96h4v30.52h-5M1441.23 88.32v27.16h-4V88.32h-10.5v-3.36h25v3.36h-10.5M1468.23 88.32v27.16h-4V88.32h-10.5v-3.36h25v3.36h-10.5M1341.23 153.28c4 .84 7 2.52 7 7.28 0 10.92-17 11.2-20.5 3.64 0-1.12-.5-1.96-.5-3.08l4-.56c.5 3.36 2.5 5.6 6.5 5.6s6.5-1.96 6.5-5.88c0-4.48-4.5-5.6-9.5-5.04v-3.64c4.5.28 8.5-.56 8.5-5.04 0-3.36-2-5.32-5.5-5.32s-6 1.68-6 5.04l-4-.56c.5-5.04 4.5-7.56 10-7.84 6 0 9.5 2.8 9.5 8.12 0 4.48-2.5 6.44-6 7.28M1362.73 137.88c10-.84 11.5 10.92 5 16.24l-7.5 7c-1.5 1.4-3 2.52-3.5 4.48h16v3.36h-20.5c.5-12.32 16-11.76 16-22.4 0-3.64-2-5.32-5.5-5.32s-5.5 1.68-6 5.04l-4-.56c.5-5.04 4-7.28 10-7.84M1390.73 138.44c11 0 24-1.96 24 9.24 0 9.52-9.5 9.8-19.5 9.24v12.04h-4.5v-30.52zm4.5 15.4c7 0 15 1.4 15-6.16 0-7.28-8.5-5.88-15-6.16v12.32M1420.73 168.96v-30.52h23v3.36h-19v9.8h17.5v3.36h-17.5v10.64h20v3.36h-24M1452.23 147.96h-3l-.5-9.52h4M1471.73 151.32c-.5-4.2-11-4.76-11 0 2 6.44 14.5 1.4 15 11.2.5 9.52-18.5 8.96-19.5.84l3.5-.56c.5 4.48 12 5.6 12 0-1.5-7-14-1.96-14.5-11.2-.5-7 10-7.84 15-5.04 1.5.84 2.5 2.24 3 4.2M1322.23 231.4c-5-5.04-8-11.2-8-20.72s3.5-15.68 8-20.72h4c-5 5.04-8 11.48-8 20.72 0 9.52 3 15.68 8 20.72h-4M1338.73 191.36c10-.84 11.5 10.64 5 16.24l-7.5 6.72c-1.5 1.4-3 2.8-3.5 4.48h16v3.36h-20.5c.5-12.04 16-11.48 16-22.4 0-3.36-2-5.32-5.5-5.32s-6 1.96-6 5.04l-4-.28c.5-5.04 4-7.56 10-7.84M1357.23 204.8c6-4.48 17-1.12 16.5 7.56 1.5 12.04-19 14-21 3.08l4-.56c.5 3.08 2.5 4.76 6 4.76 4.5-.28 6.5-2.8 7-7.28.5-6.72-9-8.12-12.5-4.2h-3.5l1-16.52h17V195h-13.5M1387.73 191.36c8.5 0 10.5 6.72 10.5 15.68 0 8.68-2 15.68-10.5 15.68-8 0-10.5-7-10.5-15.68 0-8.96 2-15.68 10.5-15.68zm0 28.28c6 0 7-6.16 7-12.6 0-6.72-.5-12.6-7-12.6-6 0-6.5 5.88-6.5 12.6 0 6.44.5 12.6 6.5 12.6M1438.73 200.04c-1.5-3.36-4.5-5.32-9-5.32-7.5 0-11 4.76-11 12.04 0 7.56 4 12.6 11 12.6 5.5 0 8-3.08 10-6.44l3 1.68c-2 4.76-6 8.12-13 8.12-10 0-14.5-6.16-15-15.96-.5-12.88 12.5-18.76 23-13.72 2.5 1.12 4 3.36 5 5.88M1470.73 200.04c-1.5-3.36-4.5-5.32-9-5.32-7.5 0-11 4.76-11 12.04 0 7.56 4 12.6 11 12.6 5.5 0 8-3.08 10-6.44l3 1.68c-2 4.76-6 8.12-13 8.12-10 0-14.5-6.16-15-15.96-.5-12.88 12-18.76 23-13.72 2.5 1.12 4 3.36 5 5.88M1480.73 189.96c4.5 5.04 8 11.48 8 20.72 0 9.52-3.5 15.68-8 20.72h-4c4.5-5.04 8-11.2 8-20.72 0-9.24-3.5-15.68-8-20.72h4" stroke="#000" stroke-opacity="0" stroke-width=".12" fill="#333"/><path d="M1182.73 46.6h35" stroke="#5e5e5e" stroke-width="2" fill-opacity="0"/><path d="M1182.73 47.72h-1v-1.96h1z" stroke="#000" stroke-opacity="0" fill="#5e5e5e"/><path d="M1233.23 46.6l-14.5 4.76v-9.24z" stroke="#5e5e5e" stroke-width="2" fill="#5e5e5e"/><path d="M1182.73 113.24h35" stroke="#5e5e5e" stroke-width="2" fill-opacity="0"/><path d="M1182.73 114.36h-1v-1.96h1z" stroke="#000" stroke-opacity="0" fill="#5e5e5e"/><path d="M1233.23 113.24l-14.5 4.76v-9.24z" stroke="#5e5e5e" stroke-width="2" fill="#5e5e5e"/><path d="M1182.73 273.4h35" stroke="#5e5e5e" stroke-width="2" fill-opacity="0"/><path d="M1182.73 274.24h-1v-1.96h1z" stroke="#000" stroke-opacity="0" fill="#5e5e5e"/><path d="M1233.23 273.4l-14.5 4.48v-9.24z" stroke="#5e5e5e" stroke-width="2" fill="#5e5e5e"/><path d="M1235.23 160h-20.5c-3 0-6-2.8-6-5.88V52.76c0-3.36-2.5-6.16-6-6.16h-2.5" stroke="#5e5e5e" stroke-width="2" fill-opacity="0"/><path d="M1236.23 161.12h-1v-2.24h1z" stroke="#000" stroke-opacity="0" fill="#5e5e5e"/><path d="M1184.73 46.6l14.5-4.48v9.24z" stroke="#5e5e5e" stroke-width="2" fill="#5e5e5e"/><path d="M1235.23 160h-20.5c-3 0-6-2.8-6-5.88V119.4c0-3.36-2.5-6.16-6-6.16h-2.5" stroke="#5e5e5e" stroke-width="2" fill-opacity="0"/><path d="M1236.23 161.12h-1v-2.24h1z" stroke="#000" stroke-opacity="0" fill="#5e5e5e"/><path d="M1184.73 113.24l14.5-4.48V118z" stroke="#5e5e5e" stroke-width="2" fill="#5e5e5e"/><path d="M1235.23 160h-20.5c-3 0-6 2.8-6 5.88v101.36c0 3.36-2.5 6.16-6 6.16h-2.5" stroke="#5e5e5e" stroke-width="2" fill-opacity="0"/><path d="M1236.23 161.12h-1v-2.24h1z" stroke="#000" stroke-opacity="0" fill="#5e5e5e"/><path d="M1184.73 273.4l14.5-4.76v9.24z" stroke="#5e5e5e" stroke-width="2" fill="#5e5e5e"/><path d="M1112.23 159.44c0-3.36 3-6.16 6-6.16h8c3.5 0 6 2.8 6 6.16v7.84c0 3.36-2.5 6.16-6 6.16h-8c-3 0-6-2.8-6-6.16zm0 33.32c0-3.36 3-6.16 6-6.16h8c3.5 0 6 2.8 6 6.16v7.84c0 3.36-2.5 6.16-6 6.16h-8c-3 0-6-2.8-6-6.16zm0 33.32c0-3.36 3-6.16 6-6.16h8c3.5 0 6 2.8 6 6.16v7.84c0 3.36-2.5 6.16-6 6.16h-8c-3 0-6-2.8-6-6.16zM1064.73 345.88c0-3.08 2.5-5.88 6-5.88h103.5c3 0 6 2.8 6 5.88v41.44c0 3.36-3 5.88-6 5.88h-103.5c-3.5 0-6-2.52-6-5.88z" stroke="#5e5e5e" stroke-width="3" fill="#fff"/><path d="M1085.23 362.96c2 .28 3.5 1.4 3.5 3.64 0 5.6-6.5 4.2-11.5 4.48v-15.4c4.5.28 11-1.12 11 3.64 0 2.24-1.5 3.08-3 3.64zm-6-.56c3-.28 6.5.28 6.5-2.8 0-2.8-3.5-2.24-6.5-2.24v5.04zm0 7c3.5-.28 7.5.84 7.5-2.8 0-3.36-4-2.52-7.5-2.8v5.6M1104.23 360.16c0 2.52-1 3.92-3.5 4.2l4.5 6.72h-2.5l-4-6.44h-5v6.44h-2v-15.4c5.5.28 13-1.12 12.5 4.48zm-10.5 2.8c4 0 8.5.84 8.5-2.8 0-3.64-4.5-2.52-8.5-2.8v5.6M1118.73 371.08l-1.5-4.48h-7l-2 4.48h-2l6-15.4h2.5l6 15.4h-2zm-2.5-6.16l-3-7.56c-.5 2.8-1.5 5.04-2.5 7.56h5.5M1135.73 371.08v-13.44c-1.5 4.76-3 8.96-5 13.44h-1.5l-5-13.44.5 13.44h-2v-15.4h2.5l5 13.16c1.5-4.76 3-8.68 4.5-13.16h3v15.4h-2M1155.23 361.28l-1 4.2h3v1.12h-3l-1 4.48h-1l.5-4.48h-4l-.5 4.48h-1.5l1-4.48h-2v-1.12h2.5l.5-4.2h-2.5v-1.12h3l1-4.2h1l-1 4.2h4l1-4.2h1l-1 4.2h2.5v1.12h-2.5zm-5 0l-1 4.2h4l1-4.2h-4M1164.23 355.4c4 0 5 3.64 5 7.84 0 4.48-1 8.12-5 8.12-4.5 0-5.5-3.64-5.5-8.12 0-4.48 1-7.84 5.5-7.84zm0 14.28c2.5 0 3-3.08 3-6.44 0-3.08 0-6.16-3-6.16-3.5 0-3.5 3.08-3.5 6.16 0 3.36.5 6.44 3.5 6.44" stroke="#000" stroke-opacity="0" stroke-width=".06" fill="#333"/><path d="M1064.73 412.8c0-3.36 2.5-6.16 6-6.16h103.5c3 0 6 2.8 6 6.16v41.16c0 3.36-3 6.16-6 6.16h-103.5c-3.5 0-6-2.8-6-6.16z" stroke="#5e5e5e" stroke-width="3" fill="#fff"/><path d="M1085.23 429.6c2 .28 3.5 1.4 3.5 3.64 0 5.6-6.5 4.2-11.5 4.48v-15.4c4.5.28 11-1.12 11 3.64 0 2.24-1.5 3.08-3 3.64zm-6-.56c3-.28 6.5.56 6.5-2.8 0-2.8-3.5-2.24-6.5-2.24v5.04zm0 7c3.5 0 7.5.84 7.5-2.8 0-3.36-4-2.52-7.5-2.8v5.6M1104.23 426.8c0 2.52-1 3.92-3.5 4.2l4.5 6.72h-2.5l-4-6.44h-5v6.44h-2v-15.4c5.5.28 13-1.12 12.5 4.48zm-10.5 2.8c4 0 8.5.84 8.5-2.8 0-3.64-4.5-2.52-8.5-2.8v5.6M1118.73 437.72l-1.5-4.48h-7l-2 4.48h-2l6-15.4h2.5l6 15.4h-2zm-2.5-6.16l-3-7.56c-.5 2.8-1.5 5.04-2.5 7.56h5.5M1135.73 437.72v-13.44c-1.5 4.76-3 8.96-5 13.44h-1.5l-5-13.44.5 13.44h-2v-15.4h2.5l5 13.16c1.5-4.76 3-8.68 4.5-13.16h3v15.4h-2M1155.23 428.2l-1 3.92h3v1.12h-3l-1 4.48h-1l.5-4.48h-4l-.5 4.48h-1.5l1-4.48h-2v-1.12h2.5l.5-3.92h-2.5v-1.4h3l1-4.2h1l-1 4.2h4l1-4.2h1l-1 4.2h2.5v1.4h-2.5zm-5 0l-1 3.92h4l1-3.92h-4M1159.73 437.72v-1.68h3.5v-11.76l-3 2.52v-1.96l3.5-2.52h1.5v13.72h4v1.68h-9.5" stroke="#000" stroke-opacity="0" stroke-width=".06" fill="#333"/><path d="M1064.73 572.68c0-3.36 2.5-5.88 6-5.88h103.5c3 0 6 2.52 6 5.88v41.44c0 3.08-3 5.88-6 5.88h-103.5c-3.5 0-6-2.8-6-5.88z" stroke="#5e5e5e" stroke-width="3" fill="#fff"/><path d="M1100.73 581.36c2 .28 3.5 1.4 3.5 3.64 0 5.6-6.5 4.2-11.5 4.48v-15.4c4.5.28 10.5-1.12 10.5 3.64 0 2.24-1 3.08-2.5 3.64zm-6-.56c3-.28 6.5.56 6.5-2.8 0-2.8-3.5-2.24-6.5-2.24v5.04zm0 7c3-.28 7.5.84 7.5-2.8 0-3.36-4.5-2.52-7.5-2.8v5.6M1119.73 578.56c0 2.52-1.5 3.92-3.5 4.2l4.5 6.72h-2.5l-4-6.44h-5v6.44h-2v-15.4c5.5.28 13-1.12 12.5 4.48zm-10.5 2.8c4 0 8.5.84 8.5-2.8 0-3.64-5-2.52-8.5-2.8v5.6M1134.23 589.48l-2-4.48h-7l-1.5 4.48h-2l6-15.4h2.5l6 15.4h-2zm-2.5-6.16l-3-7.56c-.5 2.8-1.5 5.04-2.5 7.56h5.5M1151.23 589.48v-13.44c-1.5 4.76-3.5 8.96-5 13.44h-1.5l-5-13.44v13.44h-1.5v-15.4h2.5l5 13.16c1-4.76 3-8.68 4.5-13.16h2.5v15.4h-1.5M1113.73 606.56l-.5 3.92h2.5v1.12h-3l-1 4.48h-1l1-4.48h-4l-1 4.48h-1l1-4.48h-2.5v-1.12h2.5l1-3.92h-3v-1.12h3l1-4.48h1.5l-1 4.48h3.5l1-4.48h1.5l-1 4.48h2v1.12h-2.5zm-5 0l-1 3.92h4l1-3.92h-4M1123.23 606.28c3 0 4.5 1.68 4.5 4.76 0 3.36-1.5 5.32-5 5.32-4 0-5-3.36-5-7.56-.5-5.6 3-10.08 8-7.56 1 .56 1.5 1.4 2 2.52l-2 .28c-.5-2.52-4-2.24-5-.28-.5 1.12-1 2.52-1 4.48.5-1.12 2-1.96 3.5-1.96zm-.5 8.4c2.5 0 3-1.4 3-3.64 0-1.96-1-3.36-3-3.36-1.5 0-3 1.12-3 3.08 0 2.24 1 3.92 3 3.92M1136.73 608.24c2 .28 3.5 1.4 3.5 3.64 0 5.6-8.5 5.6-10 1.96-.5-.56-.5-1.12-.5-1.68l2-.28c.5 1.68 1.5 2.8 3.5 2.8s3-.84 3-2.8c0-2.24-2-2.8-5-2.8v-1.68c2.5 0 4.5-.28 4.5-2.52 0-1.68-1-2.52-2.5-2.52-2 0-3 .84-3 2.52l-2-.28c0-2.52 2-3.92 5-3.92 2.5 0 4.5 1.12 4.5 3.92 0 2.24-1 3.36-3 3.64" stroke="#000" stroke-opacity="0" stroke-width=".06" fill="#333"/><path d="M1237.73 345.88c0-3.08 3-5.88 6-5.88h315c3.5 0 6 2.8 6 5.88v268.24c0 3.08-2.5 5.88-6 5.88h-315c-3 0-6-2.8-6-5.88z" stroke="#5e5e5e" stroke-width="3" fill="#fff"/><path d="M1349.23 413.64c-1.5-3.64-4.5-5.6-9-5.6-7.5 0-11 4.76-11 12.04 0 7.56 4 12.6 11 12.6 5.5 0 8-3.08 10-6.44l3 1.68c-2 4.76-6 8.12-13 8.12-10 0-14.5-6.16-15-15.96-.5-12.88 12-18.76 23-13.72 2.5 1.12 4 3.36 5 5.88M1370.73 408.32v27.16h-4v-27.16h-10.5v-3.36h25v3.36h-10.5M1417.23 435.48l-16.5-26.04v26.04h-3.5v-30.52h5l16 26.32v-26.32h4v30.52h-5M1441.23 408.32v27.16h-4v-27.16h-10.5v-3.36h25v3.36h-10.5M1468.23 408.32v27.16h-4v-27.16h-10.5v-3.36h25v3.36h-10.5M1341.23 473.28c4 .84 7 2.52 7 7.28 0 10.92-17 11.2-20.5 3.64 0-1.12-.5-1.96-.5-3.08l4-.56c.5 3.36 2.5 5.6 6.5 5.6s6.5-1.96 6.5-5.88c0-4.48-4.5-5.6-9.5-5.04v-3.64c4.5.28 8.5-.56 8.5-5.04 0-3.36-2-5.32-5.5-5.32s-6 1.68-6 5.04l-4-.56c.5-5.04 4.5-7.56 10-7.84 6 0 9.5 2.8 9.5 8.12 0 4.48-2.5 6.44-6 7.28M1362.73 457.88c10-.84 11.5 10.92 5 16.24l-7.5 7c-1.5 1.4-3 2.52-3.5 4.48h16v3.36h-20.5c.5-12.32 16-11.76 16-22.4 0-3.64-2-5.32-5.5-5.32s-5.5 1.68-6 5.04l-4-.56c.5-5.04 4-7.28 10-7.84M1390.73 458.44c11 0 24-1.96 24 9.24 0 9.52-9.5 9.8-19.5 9.24v12.04h-4.5v-30.52zm4.5 15.4c7 0 15 1.4 15-6.16 0-7.28-8.5-5.88-15-6.16v12.32M1420.73 488.96v-30.52h23v3.36h-19v9.8h17.5v3.36h-17.5v10.64h20v3.36h-24M1452.23 467.96h-3l-.5-9.52h4M1471.73 471.32c-.5-4.2-11-4.76-11 0 2 6.44 14.5 1.4 15 11.2.5 9.52-18.5 8.96-19.5.84l3.5-.56c.5 4.48 12 5.6 12 0-1.5-7-14-1.96-14.5-11.2-.5-7 10-7.84 15-5.04 1.5.84 2.5 2.24 3 4.2M1322.23 551.4c-5-5.04-8-11.2-8-20.72s3.5-15.68 8-20.72h4c-5 5.04-8 11.48-8 20.72 0 9.52 3 15.68 8 20.72h-4M1338.73 511.36c10-.84 11.5 10.64 5 16.24l-7.5 6.72c-1.5 1.4-3 2.8-3.5 4.48h16v3.36h-20.5c.5-12.04 16-11.48 16-22.4 0-3.36-2-5.32-5.5-5.32s-6 1.96-6 5.04l-4-.28c.5-5.04 4-7.56 10-7.84M1357.23 524.8c6-4.48 17-1.12 16.5 7.56 1.5 12.04-19 14-21 3.08l4-.56c.5 3.08 2.5 4.76 6 4.76 4.5-.28 6.5-2.8 7-7.28.5-6.72-9-8.12-12.5-4.2h-3.5l1-16.52h17V515h-13.5M1387.73 511.36c8.5 0 10.5 6.72 10.5 15.68 0 8.68-2 15.68-10.5 15.68-8 0-10.5-7-10.5-15.68 0-8.96 2-15.68 10.5-15.68zm0 28.28c6 0 7-6.16 7-12.6 0-6.72-.5-12.6-7-12.6-6 0-6.5 5.88-6.5 12.6 0 6.44.5 12.6 6.5 12.6M1438.73 520.04c-1.5-3.36-4.5-5.32-9-5.32-7.5 0-11 4.76-11 12.04 0 7.56 4 12.6 11 12.6 5.5 0 8-3.08 10-6.44l3 1.68c-2 4.76-6 8.12-13 8.12-10 0-14.5-6.16-15-15.96-.5-12.88 12.5-18.76 23-13.72 2.5 1.12 4 3.36 5 5.88M1470.73 520.04c-1.5-3.36-4.5-5.32-9-5.32-7.5 0-11 4.76-11 12.04 0 7.56 4 12.6 11 12.6 5.5 0 8-3.08 10-6.44l3 1.68c-2 4.76-6 8.12-13 8.12-10 0-14.5-6.16-15-15.96-.5-12.88 12-18.76 23-13.72 2.5 1.12 4 3.36 5 5.88M1480.73 509.96c4.5 5.04 8 11.48 8 20.72 0 9.52-3.5 15.68-8 20.72h-4c4.5-5.04 8-11.2 8-20.72 0-9.24-3.5-15.68-8-20.72h4" stroke="#000" stroke-opacity="0" stroke-width=".12" fill="#333"/><path d="M1182.73 366.6h35" stroke="#5e5e5e" stroke-width="2" fill-opacity="0"/><path d="M1182.73 367.72h-1v-1.96h1z" stroke="#000" stroke-opacity="0" fill="#5e5e5e"/><path d="M1233.23 366.6l-14.5 4.76v-9.24z" stroke="#5e5e5e" stroke-width="2" fill="#5e5e5e"/><path d="M1182.73 433.24h35" stroke="#5e5e5e" stroke-width="2" fill-opacity="0"/><path d="M1182.73 434.36h-1v-1.96h1z" stroke="#000" stroke-opacity="0" fill="#5e5e5e"/><path d="M1233.23 433.24l-14.5 4.76v-9.24z" stroke="#5e5e5e" stroke-width="2" fill="#5e5e5e"/><path d="M1182.73 593.4h35" stroke="#5e5e5e" stroke-width="2" fill-opacity="0"/><path d="M1182.73 594.24h-1v-1.96h1z" stroke="#000" stroke-opacity="0" fill="#5e5e5e"/><path d="M1233.23 593.4l-14.5 4.48v-9.24z" stroke="#5e5e5e" stroke-width="2" fill="#5e5e5e"/><path d="M1235.23 480h-20.5c-3 0-6-2.8-6-5.88V372.76c0-3.36-2.5-6.16-6-6.16h-2.5" stroke="#5e5e5e" stroke-width="2" fill-opacity="0"/><path d="M1236.23 481.12h-1v-2.24h1z" stroke="#000" stroke-opacity="0" fill="#5e5e5e"/><path d="M1184.73 366.6l14.5-4.48v9.24z" stroke="#5e5e5e" stroke-width="2" fill="#5e5e5e"/><path d="M1235.23 480h-20.5c-3 0-6-2.8-6-5.88V439.4c0-3.36-2.5-6.16-6-6.16h-2.5" stroke="#5e5e5e" stroke-width="2" fill-opacity="0"/><path d="M1236.23 481.12h-1v-2.24h1z" stroke="#000" stroke-opacity="0" fill="#5e5e5e"/><path d="M1184.73 433.24l14.5-4.48V438z" stroke="#5e5e5e" stroke-width="2" fill="#5e5e5e"/><path d="M1235.23 480h-20.5c-3 0-6 2.8-6 5.88v101.36c0 3.36-2.5 6.16-6 6.16h-2.5" stroke="#5e5e5e" stroke-width="2" fill-opacity="0"/><path d="M1236.23 481.12h-1v-2.24h1z" stroke="#000" stroke-opacity="0" fill="#5e5e5e"/><path d="M1184.73 593.4l14.5-4.76v9.24z" stroke="#5e5e5e" stroke-width="2" fill="#5e5e5e"/><path d="M1112.23 479.44c0-3.36 3-6.16 6-6.16h8c3.5 0 6 2.8 6 6.16v7.84c0 3.36-2.5 6.16-6 6.16h-8c-3 0-6-2.8-6-6.16zm0 33.32c0-3.36 3-6.16 6-6.16h8c3.5 0 6 2.8 6 6.16v7.84c0 3.36-2.5 6.16-6 6.16h-8c-3 0-6-2.8-6-6.16zm0 33.32c0-3.36 3-6.16 6-6.16h8c3.5 0 6 2.8 6 6.16v7.84c0 3.36-2.5 6.16-6 6.16h-8c-3 0-6-2.8-6-6.16zM1064.73 665.88c0-3.08 2.5-5.88 6-5.88h103.5c3 0 6 2.8 6 5.88v41.44c0 3.36-3 5.88-6 5.88h-103.5c-3.5 0-6-2.52-6-5.88z" stroke="#5e5e5e" stroke-width="3" fill="#fff"/><path d="M1085.23 682.96c2 .28 3.5 1.4 3.5 3.64 0 5.6-6.5 4.2-11.5 4.48v-15.4c4.5.28 11-1.12 11 3.64 0 2.24-1.5 3.08-3 3.64zm-6-.56c3-.28 6.5.28 6.5-2.8 0-2.8-3.5-2.24-6.5-2.24v5.04zm0 7c3.5-.28 7.5.84 7.5-2.8 0-3.36-4-2.52-7.5-2.8v5.6M1104.23 680.16c0 2.52-1 3.92-3.5 4.2l4.5 6.72h-2.5l-4-6.44h-5v6.44h-2v-15.4c5.5.28 13-1.12 12.5 4.48zm-10.5 2.8c4 0 8.5.84 8.5-2.8 0-3.64-4.5-2.52-8.5-2.8v5.6M1118.73 691.08l-1.5-4.48h-7l-2 4.48h-2l6-15.4h2.5l6 15.4h-2zm-2.5-6.16l-3-7.56c-.5 2.8-1.5 5.04-2.5 7.56h5.5M1135.73 691.08v-13.44c-1.5 4.76-3 8.96-5 13.44h-1.5l-5-13.44.5 13.44h-2v-15.4h2.5l5 13.16c1.5-4.76 3-8.68 4.5-13.16h3v15.4h-2M1155.23 681.28l-1 4.2h3v1.12h-3l-1 4.48h-1l.5-4.48h-4l-.5 4.48h-1.5l1-4.48h-2v-1.12h2.5l.5-4.2h-2.5v-1.12h3l1-4.2h1l-1 4.2h4l1-4.2h1l-1 4.2h2.5v1.12h-2.5zm-5 0l-1 4.2h4l1-4.2h-4M1164.23 675.4c4 0 5 3.64 5 7.84 0 4.48-1 8.12-5 8.12-4.5 0-5.5-3.64-5.5-8.12 0-4.48 1-7.84 5.5-7.84zm0 14.28c2.5 0 3-3.08 3-6.44 0-3.08 0-6.16-3-6.16-3.5 0-3.5 3.08-3.5 6.16 0 3.36.5 6.44 3.5 6.44" stroke="#000" stroke-opacity="0" stroke-width=".06" fill="#333"/><path d="M1064.73 732.8c0-3.36 2.5-6.16 6-6.16h103.5c3 0 6 2.8 6 6.16v41.16c0 3.36-3 6.16-6 6.16h-103.5c-3.5 0-6-2.8-6-6.16z" stroke="#5e5e5e" stroke-width="3" fill="#fff"/><path d="M1085.23 749.6c2 .28 3.5 1.4 3.5 3.64 0 5.6-6.5 4.2-11.5 4.48v-15.4c4.5.28 11-1.12 11 3.64 0 2.24-1.5 3.08-3 3.64zm-6-.56c3-.28 6.5.56 6.5-2.8 0-2.8-3.5-2.24-6.5-2.24v5.04zm0 7c3.5 0 7.5.84 7.5-2.8 0-3.36-4-2.52-7.5-2.8v5.6M1104.23 746.8c0 2.52-1 3.92-3.5 4.2l4.5 6.72h-2.5l-4-6.44h-5v6.44h-2v-15.4c5.5.28 13-1.12 12.5 4.48zm-10.5 2.8c4 0 8.5.84 8.5-2.8 0-3.64-4.5-2.52-8.5-2.8v5.6M1118.73 757.72l-1.5-4.48h-7l-2 4.48h-2l6-15.4h2.5l6 15.4h-2zm-2.5-6.16l-3-7.56c-.5 2.8-1.5 5.04-2.5 7.56h5.5M1135.73 757.72v-13.44c-1.5 4.76-3 8.96-5 13.44h-1.5l-5-13.44.5 13.44h-2v-15.4h2.5l5 13.16c1.5-4.76 3-8.68 4.5-13.16h3v15.4h-2M1155.23 748.2l-1 3.92h3v1.12h-3l-1 4.48h-1l.5-4.48h-4l-.5 4.48h-1.5l1-4.48h-2v-1.12h2.5l.5-3.92h-2.5v-1.4h3l1-4.2h1l-1 4.2h4l1-4.2h1l-1 4.2h2.5v1.4h-2.5zm-5 0l-1 3.92h4l1-3.92h-4M1159.73 757.72v-1.68h3.5v-11.76l-3 2.52v-1.96l3.5-2.52h1.5v13.72h4v1.68h-9.5" stroke="#000" stroke-opacity="0" stroke-width=".06" fill="#333"/><path d="M1064.73 892.68c0-3.36 2.5-5.88 6-5.88h103.5c3 0 6 2.52 6 5.88v41.44c0 3.08-3 5.88-6 5.88h-103.5c-3.5 0-6-2.8-6-5.88z" stroke="#5e5e5e" stroke-width="3" fill="#fff"/><path d="M1100.73 901.36c2 .28 3.5 1.4 3.5 3.64 0 5.6-6.5 4.2-11.5 4.48v-15.4c4.5.28 10.5-1.12 10.5 3.64 0 2.24-1 3.08-2.5 3.64zm-6-.56c3-.28 6.5.56 6.5-2.8 0-2.8-3.5-2.24-6.5-2.24v5.04zm0 7c3-.28 7.5.84 7.5-2.8 0-3.36-4.5-2.52-7.5-2.8v5.6M1119.73 898.56c0 2.52-1.5 3.92-3.5 4.2l4.5 6.72h-2.5l-4-6.44h-5v6.44h-2v-15.4c5.5.28 13-1.12 12.5 4.48zm-10.5 2.8c4 0 8.5.84 8.5-2.8 0-3.64-5-2.52-8.5-2.8v5.6M1134.23 909.48l-2-4.48h-7l-1.5 4.48h-2l6-15.4h2.5l6 15.4h-2zm-2.5-6.16l-3-7.56c-.5 2.8-1.5 5.04-2.5 7.56h5.5M1151.23 909.48v-13.44c-1.5 4.76-3.5 8.96-5 13.44h-1.5l-5-13.44v13.44h-1.5v-15.4h2.5l5 13.16c1-4.76 3-8.68 4.5-13.16h2.5v15.4h-1.5M1113.73 926.56l-.5 3.92h2.5v1.12h-3l-1 4.48h-1l1-4.48h-4l-1 4.48h-1l1-4.48h-2.5v-1.12h2.5l1-3.92h-3v-1.12h3l1-4.48h1.5l-1 4.48h3.5l1-4.48h1.5l-1 4.48h2v1.12h-2.5zm-5 0l-1 3.92h4l1-3.92h-4M1123.23 926.28c3 0 4.5 1.68 4.5 4.76 0 3.36-1.5 5.32-5 5.32-4 0-5-3.36-5-7.56-.5-5.6 3-10.08 8-7.56 1 .56 1.5 1.4 2 2.52l-2 .28c-.5-2.52-4-2.24-5-.28-.5 1.12-1 2.52-1 4.48.5-1.12 2-1.96 3.5-1.96zm-.5 8.4c2.5 0 3-1.4 3-3.64 0-1.96-1-3.36-3-3.36-1.5 0-3 1.12-3 3.08 0 2.24 1 3.92 3 3.92M1136.73 928.24c2 .28 3.5 1.4 3.5 3.64 0 5.6-8.5 5.6-10 1.96-.5-.56-.5-1.12-.5-1.68l2-.28c.5 1.68 1.5 2.8 3.5 2.8s3-.84 3-2.8c0-2.24-2-2.8-5-2.8v-1.68c2.5 0 4.5-.28 4.5-2.52 0-1.68-1-2.52-2.5-2.52-2 0-3 .84-3 2.52l-2-.28c0-2.52 2-3.92 5-3.92 2.5 0 4.5 1.12 4.5 3.92 0 2.24-1 3.36-3 3.64" stroke="#000" stroke-opacity="0" stroke-width=".06" fill="#333"/><path d="M1237.73 665.88c0-3.08 3-5.88 6-5.88h315c3.5 0 6 2.8 6 5.88v268.24c0 3.08-2.5 5.88-6 5.88h-315c-3 0-6-2.8-6-5.88z" stroke="#5e5e5e" stroke-width="3" fill="#fff"/><path d="M1349.23 733.64c-1.5-3.64-4.5-5.6-9-5.6-7.5 0-11 4.76-11 12.04 0 7.56 4 12.6 11 12.6 5.5 0 8-3.08 10-6.44l3 1.68c-2 4.76-6 8.12-13 8.12-10 0-14.5-6.16-15-15.96-.5-12.88 12-18.76 23-13.72 2.5 1.12 4 3.36 5 5.88M1370.73 728.32v27.16h-4v-27.16h-10.5v-3.36h25v3.36h-10.5M1417.23 755.48l-16.5-26.04v26.04h-3.5v-30.52h5l16 26.32v-26.32h4v30.52h-5M1441.23 728.32v27.16h-4v-27.16h-10.5v-3.36h25v3.36h-10.5M1468.23 728.32v27.16h-4v-27.16h-10.5v-3.36h25v3.36h-10.5M1341.23 793.28c4 .84 7 2.52 7 7.28 0 10.92-17 11.2-20.5 3.64 0-1.12-.5-1.96-.5-3.08l4-.56c.5 3.36 2.5 5.6 6.5 5.6s6.5-1.96 6.5-5.88c0-4.48-4.5-5.6-9.5-5.04v-3.64c4.5.28 8.5-.56 8.5-5.04 0-3.36-2-5.32-5.5-5.32s-6 1.68-6 5.04l-4-.56c.5-5.04 4.5-7.56 10-7.84 6 0 9.5 2.8 9.5 8.12 0 4.48-2.5 6.44-6 7.28M1362.73 777.88c10-.84 11.5 10.92 5 16.24l-7.5 7c-1.5 1.4-3 2.52-3.5 4.48h16v3.36h-20.5c.5-12.32 16-11.76 16-22.4 0-3.64-2-5.32-5.5-5.32s-5.5 1.68-6 5.04l-4-.56c.5-5.04 4-7.28 10-7.84M1390.73 778.44c11 0 24-1.96 24 9.24 0 9.52-9.5 9.8-19.5 9.24v12.04h-4.5v-30.52zm4.5 15.4c7 0 15 1.4 15-6.16 0-7.28-8.5-5.88-15-6.16v12.32M1420.73 808.96v-30.52h23v3.36h-19v9.8h17.5v3.36h-17.5v10.64h20v3.36h-24M1452.23 787.96h-3l-.5-9.52h4M1471.73 791.32c-.5-4.2-11-4.76-11 0 2 6.44 14.5 1.4 15 11.2.5 9.52-18.5 8.96-19.5.84l3.5-.56c.5 4.48 12 5.6 12 0-1.5-7-14-1.96-14.5-11.2-.5-7 10-7.84 15-5.04 1.5.84 2.5 2.24 3 4.2M1322.23 871.4c-5-5.04-8-11.2-8-20.72s3.5-15.68 8-20.72h4c-5 5.04-8 11.48-8 20.72 0 9.52 3 15.68 8 20.72h-4M1338.73 831.36c10-.84 11.5 10.64 5 16.24l-7.5 6.72c-1.5 1.4-3 2.8-3.5 4.48h16v3.36h-20.5c.5-12.04 16-11.48 16-22.4 0-3.36-2-5.32-5.5-5.32s-6 1.96-6 5.04l-4-.28c.5-5.04 4-7.56 10-7.84M1357.23 844.8c6-4.48 17-1.12 16.5 7.56 1.5 12.04-19 14-21 3.08l4-.56c.5 3.08 2.5 4.76 6 4.76 4.5-.28 6.5-2.8 7-7.28.5-6.72-9-8.12-12.5-4.2h-3.5l1-16.52h17V835h-13.5M1387.73 831.36c8.5 0 10.5 6.72 10.5 15.68 0 8.68-2 15.68-10.5 15.68-8 0-10.5-7-10.5-15.68 0-8.96 2-15.68 10.5-15.68zm0 28.28c6 0 7-6.16 7-12.6 0-6.72-.5-12.6-7-12.6-6 0-6.5 5.88-6.5 12.6 0 6.44.5 12.6 6.5 12.6M1438.73 840.04c-1.5-3.36-4.5-5.32-9-5.32-7.5 0-11 4.76-11 12.04 0 7.56 4 12.6 11 12.6 5.5 0 8-3.08 10-6.44l3 1.68c-2 4.76-6 8.12-13 8.12-10 0-14.5-6.16-15-15.96-.5-12.88 12.5-18.76 23-13.72 2.5 1.12 4 3.36 5 5.88M1470.73 840.04c-1.5-3.36-4.5-5.32-9-5.32-7.5 0-11 4.76-11 12.04 0 7.56 4 12.6 11 12.6 5.5 0 8-3.08 10-6.44l3 1.68c-2 4.76-6 8.12-13 8.12-10 0-14.5-6.16-15-15.96-.5-12.88 12-18.76 23-13.72 2.5 1.12 4 3.36 5 5.88M1480.73 829.96c4.5 5.04 8 11.48 8 20.72 0 9.52-3.5 15.68-8 20.72h-4c4.5-5.04 8-11.2 8-20.72 0-9.24-3.5-15.68-8-20.72h4" stroke="#000" stroke-opacity="0" stroke-width=".12" fill="#333"/><path d="M1182.73 686.6h35" stroke="#5e5e5e" stroke-width="2" fill-opacity="0"/><path d="M1182.73 687.72h-1v-1.96h1z" stroke="#000" stroke-opacity="0" fill="#5e5e5e"/><path d="M1233.23 686.6l-14.5 4.76v-9.24z" stroke="#5e5e5e" stroke-width="2" fill="#5e5e5e"/><path d="M1182.73 753.24h35" stroke="#5e5e5e" stroke-width="2" fill-opacity="0"/><path d="M1182.73 754.36h-1v-1.96h1z" stroke="#000" stroke-opacity="0" fill="#5e5e5e"/><path d="M1233.23 753.24l-14.5 4.76v-9.24z" stroke="#5e5e5e" stroke-width="2" fill="#5e5e5e"/><path d="M1182.73 913.4h35" stroke="#5e5e5e" stroke-width="2" fill-opacity="0"/><path d="M1182.73 914.24h-1v-1.96h1z" stroke="#000" stroke-opacity="0" fill="#5e5e5e"/><path d="M1233.23 913.4l-14.5 4.48v-9.24z" stroke="#5e5e5e" stroke-width="2" fill="#5e5e5e"/><path d="M1235.23 800h-20.5c-3 0-6-2.8-6-5.88V692.76c0-3.36-2.5-6.16-6-6.16h-2.5" stroke="#5e5e5e" stroke-width="2" fill-opacity="0"/><path d="M1236.23 801.12h-1v-2.24h1z" stroke="#000" stroke-opacity="0" fill="#5e5e5e"/><path d="M1184.73 686.6l14.5-4.48v9.24z" stroke="#5e5e5e" stroke-width="2" fill="#5e5e5e"/><path d="M1235.23 800h-20.5c-3 0-6-2.8-6-5.88V759.4c0-3.36-2.5-6.16-6-6.16h-2.5" stroke="#5e5e5e" stroke-width="2" fill-opacity="0"/><path d="M1236.23 801.12h-1v-2.24h1z" stroke="#000" stroke-opacity="0" fill="#5e5e5e"/><path d="M1184.73 753.24l14.5-4.48V758z" stroke="#5e5e5e" stroke-width="2" fill="#5e5e5e"/><path d="M1235.23 800h-20.5c-3 0-6 2.8-6 5.88v101.36c0 3.36-2.5 6.16-6 6.16h-2.5" stroke="#5e5e5e" stroke-width="2" fill-opacity="0"/><path d="M1236.23 801.12h-1v-2.24h1z" stroke="#000" stroke-opacity="0" fill="#5e5e5e"/><path d="M1184.73 913.4l14.5-4.76v9.24z" stroke="#5e5e5e" stroke-width="2" fill="#5e5e5e"/><path d="M1112.23 799.44c0-3.36 3-6.16 6-6.16h8c3.5 0 6 2.8 6 6.16v7.84c0 3.36-2.5 6.16-6 6.16h-8c-3 0-6-2.8-6-6.16zm0 33.32c0-3.36 3-6.16 6-6.16h8c3.5 0 6 2.8 6 6.16v7.84c0 3.36-2.5 6.16-6 6.16h-8c-3 0-6-2.8-6-6.16zm0 33.32c0-3.36 3-6.16 6-6.16h8c3.5 0 6 2.8 6 6.16v7.84c0 3.36-2.5 6.16-6 6.16h-8c-3 0-6-2.8-6-6.16zM1064.73 985.88c0-3.08 2.5-5.88 6-5.88h103.5c3 0 6 2.8 6 5.88v41.44c0 3.36-3 5.88-6 5.88h-103.5c-3.5 0-6-2.52-6-5.88z" stroke="#5e5e5e" stroke-width="3" fill="#fff"/><path d="M1085.23 1002.96c2 .28 3.5 1.4 3.5 3.64 0 5.6-6.5 4.2-11.5 4.48v-15.4c4.5.28 11-1.12 11 3.64 0 2.24-1.5 3.08-3 3.64zm-6-.56c3-.28 6.5.28 6.5-2.8 0-2.8-3.5-2.24-6.5-2.24v5.04zm0 7c3.5-.28 7.5.84 7.5-2.8 0-3.36-4-2.52-7.5-2.8v5.6M1104.23 1000.16c0 2.52-1 3.92-3.5 4.2l4.5 6.72h-2.5l-4-6.44h-5v6.44h-2v-15.4c5.5.28 13-1.12 12.5 4.48zm-10.5 2.8c4 0 8.5.84 8.5-2.8 0-3.64-4.5-2.52-8.5-2.8v5.6M1118.73 1011.08l-1.5-4.48h-7l-2 4.48h-2l6-15.4h2.5l6 15.4h-2zm-2.5-6.16l-3-7.56c-.5 2.8-1.5 5.04-2.5 7.56h5.5M1135.73 1011.08v-13.44c-1.5 4.76-3 8.96-5 13.44h-1.5l-5-13.44.5 13.44h-2v-15.4h2.5l5 13.16c1.5-4.76 3-8.68 4.5-13.16h3v15.4h-2M1155.23 1001.28l-1 4.2h3v1.12h-3l-1 4.48h-1l.5-4.48h-4l-.5 4.48h-1.5l1-4.48h-2v-1.12h2.5l.5-4.2h-2.5v-1.12h3l1-4.2h1l-1 4.2h4l1-4.2h1l-1 4.2h2.5v1.12h-2.5zm-5 0l-1 4.2h4l1-4.2h-4M1164.23 995.4c4 0 5 3.64 5 7.84 0 4.48-1 8.12-5 8.12-4.5 0-5.5-3.64-5.5-8.12 0-4.48 1-7.84 5.5-7.84zm0 14.28c2.5 0 3-3.08 3-6.44 0-3.08 0-6.16-3-6.16-3.5 0-3.5 3.08-3.5 6.16 0 3.36.5 6.44 3.5 6.44" stroke="#000" stroke-opacity="0" stroke-width=".06" fill="#333"/><path d="M1064.73 1052.8c0-3.36 2.5-6.16 6-6.16h103.5c3 0 6 2.8 6 6.16v41.16c0 3.36-3 6.16-6 6.16h-103.5c-3.5 0-6-2.8-6-6.16z" stroke="#5e5e5e" stroke-width="3" fill="#fff"/><path d="M1085.23 1069.6c2 .28 3.5 1.4 3.5 3.64 0 5.6-6.5 4.2-11.5 4.48v-15.4c4.5.28 11-1.12 11 3.64 0 2.24-1.5 3.08-3 3.64zm-6-.56c3-.28 6.5.56 6.5-2.8 0-2.8-3.5-2.24-6.5-2.24v5.04zm0 7c3.5 0 7.5.84 7.5-2.8 0-3.36-4-2.52-7.5-2.8v5.6M1104.23 1066.8c0 2.52-1 3.92-3.5 4.2l4.5 6.72h-2.5l-4-6.44h-5v6.44h-2v-15.4c5.5.28 13-1.12 12.5 4.48zm-10.5 2.8c4 0 8.5.84 8.5-2.8 0-3.64-4.5-2.52-8.5-2.8v5.6M1118.73 1077.72l-1.5-4.48h-7l-2 4.48h-2l6-15.4h2.5l6 15.4h-2zm-2.5-6.16l-3-7.56c-.5 2.8-1.5 5.04-2.5 7.56h5.5M1135.73 1077.72v-13.44c-1.5 4.76-3 8.96-5 13.44h-1.5l-5-13.44.5 13.44h-2v-15.4h2.5l5 13.16c1.5-4.76 3-8.68 4.5-13.16h3v15.4h-2M1155.23 1068.2l-1 3.92h3v1.12h-3l-1 4.48h-1l.5-4.48h-4l-.5 4.48h-1.5l1-4.48h-2v-1.12h2.5l.5-3.92h-2.5v-1.4h3l1-4.2h1l-1 4.2h4l1-4.2h1l-1 4.2h2.5v1.4h-2.5zm-5 0l-1 3.92h4l1-3.92h-4M1159.73 1077.72v-1.68h3.5v-11.76l-3 2.52v-1.96l3.5-2.52h1.5v13.72h4v1.68h-9.5" stroke="#000" stroke-opacity="0" stroke-width=".06" fill="#333"/><path d="M1064.73 1212.68c0-3.36 2.5-5.88 6-5.88h103.5c3 0 6 2.52 6 5.88v41.44c0 3.08-3 5.88-6 5.88h-103.5c-3.5 0-6-2.8-6-5.88z" stroke="#5e5e5e" stroke-width="3" fill="#fff"/><path d="M1100.73 1221.36c2 .28 3.5 1.4 3.5 3.64 0 5.6-6.5 4.2-11.5 4.48v-15.4c4.5.28 10.5-1.12 10.5 3.64 0 2.24-1 3.08-2.5 3.64zm-6-.56c3-.28 6.5.56 6.5-2.8 0-2.8-3.5-2.24-6.5-2.24v5.04zm0 7c3-.28 7.5.84 7.5-2.8 0-3.36-4.5-2.52-7.5-2.8v5.6M1119.73 1218.56c0 2.52-1.5 3.92-3.5 4.2l4.5 6.72h-2.5l-4-6.44h-5v6.44h-2v-15.4c5.5.28 13-1.12 12.5 4.48zm-10.5 2.8c4 0 8.5.84 8.5-2.8 0-3.64-5-2.52-8.5-2.8v5.6M1134.23 1229.48l-2-4.48h-7l-1.5 4.48h-2l6-15.4h2.5l6 15.4h-2zm-2.5-6.16l-3-7.56c-.5 2.8-1.5 5.04-2.5 7.56h5.5M1151.23 1229.48v-13.44c-1.5 4.76-3.5 8.96-5 13.44h-1.5l-5-13.44v13.44h-1.5v-15.4h2.5l5 13.16c1-4.76 3-8.68 4.5-13.16h2.5v15.4h-1.5M1113.73 1246.56l-.5 3.92h2.5v1.12h-3l-1 4.48h-1l1-4.48h-4l-1 4.48h-1l1-4.48h-2.5v-1.12h2.5l1-3.92h-3v-1.12h3l1-4.48h1.5l-1 4.48h3.5l1-4.48h1.5l-1 4.48h2v1.12h-2.5zm-5 0l-1 3.92h4l1-3.92h-4M1123.23 1246.28c3 0 4.5 1.68 4.5 4.76 0 3.36-1.5 5.32-5 5.32-4 0-5-3.36-5-7.56-.5-5.6 3-10.08 8-7.56 1 .56 1.5 1.4 2 2.52l-2 .28c-.5-2.52-4-2.24-5-.28-.5 1.12-1 2.52-1 4.48.5-1.12 2-1.96 3.5-1.96zm-.5 8.4c2.5 0 3-1.4 3-3.64 0-1.96-1-3.36-3-3.36-1.5 0-3 1.12-3 3.08 0 2.24 1 3.92 3 3.92M1136.73 1248.24c2 .28 3.5 1.4 3.5 3.64 0 5.6-8.5 5.6-10 1.96-.5-.56-.5-1.12-.5-1.68l2-.28c.5 1.68 1.5 2.8 3.5 2.8s3-.84 3-2.8c0-2.24-2-2.8-5-2.8v-1.68c2.5 0 4.5-.28 4.5-2.52 0-1.68-1-2.52-2.5-2.52-2 0-3 .84-3 2.52l-2-.28c0-2.52 2-3.92 5-3.92 2.5 0 4.5 1.12 4.5 3.92 0 2.24-1 3.36-3 3.64" stroke="#000" stroke-opacity="0" stroke-width=".06" fill="#333"/><path d="M1237.73 985.88c0-3.08 3-5.88 6-5.88h315c3.5 0 6 2.8 6 5.88v268.24c0 3.08-2.5 5.88-6 5.88h-315c-3 0-6-2.8-6-5.88z" stroke="#5e5e5e" stroke-width="3" fill="#fff"/><path d="M1349.23 1053.64c-1.5-3.64-4.5-5.6-9-5.6-7.5 0-11 4.76-11 12.04 0 7.56 4 12.6 11 12.6 5.5 0 8-3.08 10-6.44l3 1.68c-2 4.76-6 8.12-13 8.12-10 0-14.5-6.16-15-15.96-.5-12.88 12-18.76 23-13.72 2.5 1.12 4 3.36 5 5.88M1370.73 1048.32v27.16h-4v-27.16h-10.5v-3.36h25v3.36h-10.5M1417.23 1075.48l-16.5-26.04v26.04h-3.5v-30.52h5l16 26.32v-26.32h4v30.52h-5M1441.23 1048.32v27.16h-4v-27.16h-10.5v-3.36h25v3.36h-10.5M1468.23 1048.32v27.16h-4v-27.16h-10.5v-3.36h25v3.36h-10.5M1341.23 1113.28c4 .84 7 2.52 7 7.28 0 10.92-17 11.2-20.5 3.64 0-1.12-.5-1.96-.5-3.08l4-.56c.5 3.36 2.5 5.6 6.5 5.6s6.5-1.96 6.5-5.88c0-4.48-4.5-5.6-9.5-5.04v-3.64c4.5.28 8.5-.56 8.5-5.04 0-3.36-2-5.32-5.5-5.32s-6 1.68-6 5.04l-4-.56c.5-5.04 4.5-7.56 10-7.84 6 0 9.5 2.8 9.5 8.12 0 4.48-2.5 6.44-6 7.28M1362.73 1097.88c10-.84 11.5 10.92 5 16.24l-7.5 7c-1.5 1.4-3 2.52-3.5 4.48h16v3.36h-20.5c.5-12.32 16-11.76 16-22.4 0-3.64-2-5.32-5.5-5.32s-5.5 1.68-6 5.04l-4-.56c.5-5.04 4-7.28 10-7.84M1390.73 1098.44c11 0 24-1.96 24 9.24 0 9.52-9.5 9.8-19.5 9.24v12.04h-4.5v-30.52zm4.5 15.4c7 0 15 1.4 15-6.16 0-7.28-8.5-5.88-15-6.16v12.32M1420.73 1128.96v-30.52h23v3.36h-19v9.8h17.5v3.36h-17.5v10.64h20v3.36h-24M1452.23 1107.96h-3l-.5-9.52h4M1471.73 1111.32c-.5-4.2-11-4.76-11 0 2 6.44 14.5 1.4 15 11.2.5 9.52-18.5 8.96-19.5.84l3.5-.56c.5 4.48 12 5.6 12 0-1.5-7-14-1.96-14.5-11.2-.5-7 10-7.84 15-5.04 1.5.84 2.5 2.24 3 4.2M1322.23 1191.4c-5-5.04-8-11.2-8-20.72s3.5-15.68 8-20.72h4c-5 5.04-8 11.48-8 20.72 0 9.52 3 15.68 8 20.72h-4M1338.73 1151.36c10-.84 11.5 10.64 5 16.24l-7.5 6.72c-1.5 1.4-3 2.8-3.5 4.48h16v3.36h-20.5c.5-12.04 16-11.48 16-22.4 0-3.36-2-5.32-5.5-5.32s-6 1.96-6 5.04l-4-.28c.5-5.04 4-7.56 10-7.84M1357.23 1164.8c6-4.48 17-1.12 16.5 7.56 1.5 12.04-19 14-21 3.08l4-.56c.5 3.08 2.5 4.76 6 4.76 4.5-.28 6.5-2.8 7-7.28.5-6.72-9-8.12-12.5-4.2h-3.5l1-16.52h17v3.36h-13.5M1387.73 1151.36c8.5 0 10.5 6.72 10.5 15.68 0 8.68-2 15.68-10.5 15.68-8 0-10.5-7-10.5-15.68 0-8.96 2-15.68 10.5-15.68zm0 28.28c6 0 7-6.16 7-12.6 0-6.72-.5-12.6-7-12.6-6 0-6.5 5.88-6.5 12.6 0 6.44.5 12.6 6.5 12.6M1438.73 1160.04c-1.5-3.36-4.5-5.32-9-5.32-7.5 0-11 4.76-11 12.04 0 7.56 4 12.6 11 12.6 5.5 0 8-3.08 10-6.44l3 1.68c-2 4.76-6 8.12-13 8.12-10 0-14.5-6.16-15-15.96-.5-12.88 12.5-18.76 23-13.72 2.5 1.12 4 3.36 5 5.88M1470.73 1160.04c-1.5-3.36-4.5-5.32-9-5.32-7.5 0-11 4.76-11 12.04 0 7.56 4 12.6 11 12.6 5.5 0 8-3.08 10-6.44l3 1.68c-2 4.76-6 8.12-13 8.12-10 0-14.5-6.16-15-15.96-.5-12.88 12-18.76 23-13.72 2.5 1.12 4 3.36 5 5.88M1480.73 1149.96c4.5 5.04 8 11.48 8 20.72 0 9.52-3.5 15.68-8 20.72h-4c4.5-5.04 8-11.2 8-20.72 0-9.24-3.5-15.68-8-20.72h4" stroke="#000" stroke-opacity="0" stroke-width=".12" fill="#333"/><path d="M1182.73 1006.6h35" stroke="#5e5e5e" stroke-width="2" fill-opacity="0"/><path d="M1182.73 1007.72h-1v-1.96h1z" stroke="#000" stroke-opacity="0" fill="#5e5e5e"/><path d="M1233.23 1006.6l-14.5 4.76v-9.24z" stroke="#5e5e5e" stroke-width="2" fill="#5e5e5e"/><path d="M1182.73 1073.24h35" stroke="#5e5e5e" stroke-width="2" fill-opacity="0"/><path d="M1182.73 1074.36h-1v-1.96h1z" stroke="#000" stroke-opacity="0" fill="#5e5e5e"/><path d="M1233.23 1073.24l-14.5 4.76v-9.24z" stroke="#5e5e5e" stroke-width="2" fill="#5e5e5e"/><path d="M1182.73 1233.4h35" stroke="#5e5e5e" stroke-width="2" fill-opacity="0"/><path d="M1182.73 1234.24h-1v-1.96h1z" stroke="#000" stroke-opacity="0" fill="#5e5e5e"/><path d="M1233.23 1233.4l-14.5 4.48v-9.24z" stroke="#5e5e5e" stroke-width="2" fill="#5e5e5e"/><path d="M1235.23 1120h-20.5c-3 0-6-2.8-6-5.88v-101.36c0-3.36-2.5-6.16-6-6.16h-2.5" stroke="#5e5e5e" stroke-width="2" fill-opacity="0"/><path d="M1236.23 1121.12h-1v-2.24h1z" stroke="#000" stroke-opacity="0" fill="#5e5e5e"/><path d="M1184.73 1006.6l14.5-4.48v9.24z" stroke="#5e5e5e" stroke-width="2" fill="#5e5e5e"/><path d="M1235.23 1120h-20.5c-3 0-6-2.8-6-5.88v-34.72c0-3.36-2.5-6.16-6-6.16h-2.5" stroke="#5e5e5e" stroke-width="2" fill-opacity="0"/><path d="M1236.23 1121.12h-1v-2.24h1z" stroke="#000" stroke-opacity="0" fill="#5e5e5e"/><path d="M1184.73 1073.24l14.5-4.48v9.24z" stroke="#5e5e5e" stroke-width="2" fill="#5e5e5e"/><path d="M1235.23 1120h-20.5c-3 0-6 2.8-6 5.88v101.36c0 3.36-2.5 6.16-6 6.16h-2.5" stroke="#5e5e5e" stroke-width="2" fill-opacity="0"/><path d="M1236.23 1121.12h-1v-2.24h1z" stroke="#000" stroke-opacity="0" fill="#5e5e5e"/><path d="M1184.73 1233.4l14.5-4.76v9.24z" stroke="#5e5e5e" stroke-width="2" fill="#5e5e5e"/><path d="M1112.23 1119.44c0-3.36 3-6.16 6-6.16h8c3.5 0 6 2.8 6 6.16v7.84c0 3.36-2.5 6.16-6 6.16h-8c-3 0-6-2.8-6-6.16zm0 33.32c0-3.36 3-6.16 6-6.16h8c3.5 0 6 2.8 6 6.16v7.84c0 3.36-2.5 6.16-6 6.16h-8c-3 0-6-2.8-6-6.16zm0 33.32c0-3.36 3-6.16 6-6.16h8c3.5 0 6 2.8 6 6.16v7.84c0 3.36-2.5 6.16-6 6.16h-8c-3 0-6-2.8-6-6.16z" stroke="#5e5e5e" stroke-width="3" fill="#fff"/><path d="M802.62 230.53h123.8c3.32 0 6-2.7 6-6V53.2c0-3.3 2.7-6 6-6h106.3" stroke="#5e5e5e" stroke-width="2" fill="none"/><path d="M802.64 231.53h-1.02v-2h1.02z" fill="#5e5e5e"/><path d="M1060 47.2l-14.27 4.64v-9.28z" stroke="#5e5e5e" stroke-width="2" fill="#5e5e5e"/><path d="M802.62 230.53h123.8c3.32 0 6-2.7 6-6v-106c0-3.3 2.7-6 6-6h106.3" stroke="#5e5e5e" stroke-width="2" fill="none"/><path d="M802.64 231.53h-1.02v-2h1.02z" fill="#5e5e5e"/><path d="M1060 112.53l-14.27 4.64v-9.27z" stroke="#5e5e5e" stroke-width="2" fill="#5e5e5e"/><path d="M802.62 230.53h123.8c3.32 0 6 2.7 6 6v27.34c0 3.3 2.7 6 6 6h106.3" stroke="#5e5e5e" stroke-width="2" fill="none"/><path d="M802.64 231.53h-1.02v-2h1.02z" fill="#5e5e5e"/><path d="M1060 269.87l-14.27 4.63v-9.27z" stroke="#5e5e5e" stroke-width="2" fill="#5e5e5e"/><path d="M802.62 230.53h123.8c3.32 0 6 2.7 6 6v122c0 3.32 2.7 6 6 6h106.3" stroke="#5e5e5e" stroke-width="2" fill="none"/><path d="M802.64 231.53h-1.02v-2h1.02z" fill="#5e5e5e"/><path d="M1060 364.53l-14.27 4.64v-9.27z" stroke="#5e5e5e" stroke-width="2" fill="#5e5e5e"/><path d="M802.62 230.53h123.8c3.32 0 6 2.7 6 6v190c0 3.32 2.7 6 6 6h106.3" stroke="#5e5e5e" stroke-width="2" fill="none"/><path d="M802.64 231.53h-1.02v-2h1.02z" fill="#5e5e5e"/><path d="M1060 432.53l-14.27 4.64v-9.27z" stroke="#5e5e5e" stroke-width="2" fill="#5e5e5e"/><path d="M802.62 230.53h123.8c3.32 0 6 2.7 6 6V583.6c0 3.3 2.7 6 6 6h106.3" stroke="#5e5e5e" stroke-width="2" fill="none"/><path d="M802.64 231.53h-1.02v-2h1.02z" fill="#5e5e5e"/><path d="M1060 589.6l-14.27 4.64v-9.28z" stroke="#5e5e5e" stroke-width="2" fill="#5e5e5e"/><path d="M802.62 230.53h123.8c3.32 0 6 2.7 6 6v440.94c0 3.3 2.7 6 6 6h106.3" stroke="#5e5e5e" stroke-width="2" fill="none"/><path d="M802.64 231.53h-1.02v-2h1.02z" fill="#5e5e5e"/><path d="M1060 683.47l-14.27 4.63v-9.27z" stroke="#5e5e5e" stroke-width="2" fill="#5e5e5e"/><path d="M802.62 230.53h123.8c3.32 0 6 2.7 6 6V746.8c0 3.3 2.7 6 6 6h106.3" stroke="#5e5e5e" stroke-width="2" fill="none"/><path d="M802.64 231.53h-1.02v-2h1.02z" fill="#5e5e5e"/><path d="M1060 752.8l-14.27 4.64v-9.28z" stroke="#5e5e5e" stroke-width="2" fill="#5e5e5e"/><path d="M802.62 230.53h123.8c3.32 0 6 2.7 6 6v670c0 3.32 2.7 6 6 6h106.3" stroke="#5e5e5e" stroke-width="2" fill="none"/><path d="M802.64 231.53h-1.02v-2h1.02z" fill="#5e5e5e"/><path d="M1060 912.53l-14.27 4.64v-9.27z" stroke="#5e5e5e" stroke-width="2" fill="#5e5e5e"/><path d="M802.62 230.53h123.8c3.32 0 6 2.7 6 6v766.27c0 3.3 2.7 6 6 6h106.3" stroke="#5e5e5e" stroke-width="2" fill="none"/><path d="M802.64 231.53h-1.02v-2h1.02z" fill="#5e5e5e"/><path d="M1060 1008.8l-14.27 4.64v-9.28z" stroke="#5e5e5e" stroke-width="2" fill="#5e5e5e"/><path d="M802.62 230.53h123.8c3.32 0 6 2.7 6 6v827.07c0 3.3 2.7 6 6 6h106.3" stroke="#5e5e5e" stroke-width="2" fill="none"/><path d="M802.64 231.53h-1.02v-2h1.02z" fill="#5e5e5e"/><path d="M1060 1069.6l-14.27 4.64v-9.28z" stroke="#5e5e5e" stroke-width="2" fill="#5e5e5e"/><path d="M802.62 230.53h123.8c3.32 0 6 2.7 6 6v990.27c0 3.3 2.7 6 6 6h106.3" stroke="#5e5e5e" stroke-width="2" fill="none"/><path d="M802.64 231.53h-1.02v-2h1.02z" fill="#5e5e5e"/><path d="M1060 1232.8l-14.27 4.64v-9.28z" stroke="#5e5e5e" stroke-width="2" fill="#5e5e5e"/><path d="M1640 566c0-3.3 2.7-6 6-6h148c3.3 0 6 2.7 6 6v108c0 3.3-2.7 6-6 6h-148c-3.3 0-6-2.7-6-6z" stroke="#5e5e5e" stroke-width="3" fill="#fff"/><use xlink:href="#e" transform="matrix(1,0,0,1,1645,565) translate(55.55555555555556 67.08333333333334)"/><path d="M1567.23 160H1714c3.3 0 6 2.7 6 6v374" stroke="#5e5e5e" stroke-width="2" fill="none"/><path d="M1567.26 161h-1.03v-2h1.03z" fill="#5e5e5e"/><path d="M1720 555.26l-4.64-14.26h9.28z" stroke="#5e5e5e" stroke-width="2" fill="#5e5e5e"/><path d="M1567.23 480h29.14c3.3 0 6 2.7 6 6v128c0 3.3 2.68 6 6 6H1620" stroke="#5e5e5e" stroke-width="2" fill="none"/><path d="M1567.26 481h-1.03v-2h1.03z" fill="#5e5e5e"/><path d="M1635.26 620l-14.26 4.64v-9.28z" stroke="#5e5e5e" stroke-width="2" fill="#5e5e5e"/><path d="M1567.23 800h29.14c3.3 0 6-2.7 6-6V626c0-3.3 2.68-6 6-6H1620" stroke="#5e5e5e" stroke-width="2" fill="none"/><path d="M1567.26 801h-1.03v-2h1.03z" fill="#5e5e5e"/><path d="M1635.26 620l-14.26 4.64v-9.28z" stroke="#5e5e5e" stroke-width="2" fill="#5e5e5e"/><path d="M1567.23 1120H1714c3.3 0 6-2.7 6-6V700" stroke="#5e5e5e" stroke-width="2" fill="none"/><path d="M1567.26 1121h-1.03v-2h1.03z" fill="#5e5e5e"/><path d="M1720 684.74l4.64 14.26h-9.28z" stroke="#5e5e5e" stroke-width="2" fill="#5e5e5e"/><path d="M1802.5 620h19" stroke="#5e5e5e" stroke-width="2" fill="none"/><path d="M1802.53 621h-1.03v-2h1.03z" fill="#5e5e5e"/><path d="M1836.76 620l-14.26 4.64v-9.28z" stroke="#5e5e5e" stroke-width="2" fill="#5e5e5e"/><path d="M41 180h59M41.03 180H40" stroke="#5e5e5e" stroke-width="2" fill="none"/><path d="M115.26 180L101 184.64v-9.28z" stroke="#5e5e5e" stroke-width="2" fill="#5e5e5e"/><path d="M41 100h59M41.03 100H40" stroke="#5e5e5e" stroke-width="2" fill="none"/><path d="M115.26 100L101 104.64v-9.28z" stroke="#5e5e5e" stroke-width="2" fill="#5e5e5e"/><path d="M41 335.73h59M41.03 335.73H40" stroke="#5e5e5e" stroke-width="2" fill="none"/><path d="M115.26 335.73L101 340.37v-9.27z" stroke="#5e5e5e" stroke-width="2" fill="#5e5e5e"/><defs><path fill="#333" d="M185-189c-5-48-123-54-124 2 14 75 158 14 163 119 3 78-121 87-175 55-17-10-28-26-33-46l33-7c5 56 141 63 141-1 0-78-155-14-162-118-5-82 145-84 179-34 5 7 8 16 11 25" id="f"/><path fill="#333" d="M24-231v-30h32v30H24zM24 0v-190h32V0H24" id="g"/><path fill="#333" d="M177-190C167-65 218 103 67 71c-23-6-38-20-44-43l32-5c15 47 100 32 89-28v-30C133-14 115 1 83 1 29 1 15-40 15-95c0-56 16-97 71-98 29-1 48 16 59 35 1-10 0-23 2-32h30zM94-22c36 0 50-32 50-73 0-42-14-75-50-75-39 0-46 34-46 75s6 73 46 73" id="h"/><path fill="#333" d="M117-194c89-4 53 116 60 194h-32v-121c0-31-8-49-39-48C34-167 62-67 57 0H25l-1-190h30c1 10-1 24 2 32 11-22 29-35 61-36" id="i"/><path fill="#333" d="M100-194c63 0 86 42 84 106H49c0 40 14 67 53 68 26 1 43-12 49-29l28 8c-11 28-37 45-77 45C44 4 14-33 15-96c1-61 26-98 85-98zm52 81c6-60-76-77-97-28-3 7-6 17-6 28h103" id="j"/><path fill="#333" d="M85-194c31 0 48 13 60 33l-1-100h32l1 261h-30c-2-10 0-23-3-31C134-8 116 4 85 4 32 4 16-35 15-94c0-66 23-100 70-100zm9 24c-40 0-46 34-46 75 0 40 6 74 45 74 42 0 51-32 51-76 0-42-9-74-50-73" id="k"/><g id="a"><use transform="matrix(0.06172839506172839,0,0,0.06172839506172839,0,0)" xlink:href="#f"/><use transform="matrix(0.06172839506172839,0,0,0.06172839506172839,14.814814814814813,0)" xlink:href="#g"/><use transform="matrix(0.06172839506172839,0,0,0.06172839506172839,19.691358024691354,0)" xlink:href="#h"/><use transform="matrix(0.06172839506172839,0,0,0.06172839506172839,32.03703703703703,0)" xlink:href="#i"/><use transform="matrix(0.06172839506172839,0,0,0.06172839506172839,44.38271604938271,0)" xlink:href="#j"/><use transform="matrix(0.06172839506172839,0,0,0.06172839506172839,56.728395061728385,0)" xlink:href="#k"/></g><path fill="#333" d="M30-248c118-7 216 8 213 122C240-48 200 0 122 0H30v-248zM63-27c89 8 146-16 146-99s-60-101-146-95v194" id="l"/><path fill="#333" d="M59-47c-2 24 18 29 38 22v24C64 9 27 4 27-40v-127H5v-23h24l9-43h21v43h35v23H59v120" id="m"/><g id="b"><use transform="matrix(0.06172839506172839,0,0,0.06172839506172839,0,0)" xlink:href="#l"/><use transform="matrix(0.06172839506172839,0,0,0.06172839506172839,15.987654320987653,0)" xlink:href="#g"/><use transform="matrix(0.06172839506172839,0,0,0.06172839506172839,20.864197530864196,0)" xlink:href="#h"/><use transform="matrix(0.06172839506172839,0,0,0.06172839506172839,33.20987654320987,0)" xlink:href="#g"/><use transform="matrix(0.06172839506172839,0,0,0.06172839506172839,38.08641975308642,0)" xlink:href="#m"/></g><path fill="#333" d="M96-169c-40 0-48 33-48 73s9 75 48 75c24 0 41-14 43-38l32 2c-6 37-31 61-74 61-59 0-76-41-82-99-10-93 101-131 147-64 4 7 5 14 7 22l-32 3c-4-21-16-35-41-35" id="n"/><path fill="#333" d="M100-194c62-1 85 37 85 99 1 63-27 99-86 99S16-35 15-95c0-66 28-99 85-99zM99-20c44 1 53-31 53-75 0-43-8-75-51-75s-53 32-53 75 10 74 51 75" id="o"/><path fill="#333" d="M210-169c-67 3-38 105-44 169h-31v-121c0-29-5-50-35-48C34-165 62-65 56 0H25l-1-190h30c1 10-1 24 2 32 10-44 99-50 107 0 11-21 27-35 58-36 85-2 47 119 55 194h-31v-121c0-29-5-49-35-48" id="p"/><path fill="#333" d="M16-82v-28h88v28H16" id="q"/><g id="c"><use transform="matrix(0.06172839506172839,0,0,0.06172839506172839,0,0)" xlink:href="#l"/><use transform="matrix(0.06172839506172839,0,0,0.06172839506172839,15.987654320987653,0)" xlink:href="#j"/><use transform="matrix(0.06172839506172839,0,0,0.06172839506172839,28.333333333333332,0)" xlink:href="#n"/><use transform="matrix(0.06172839506172839,0,0,0.06172839506172839,39.44444444444444,0)" xlink:href="#o"/><use transform="matrix(0.06172839506172839,0,0,0.06172839506172839,51.79012345679012,0)" xlink:href="#p"/><use transform="matrix(0.06172839506172839,0,0,0.06172839506172839,70.24691358024691,0)" xlink:href="#q"/></g><path fill="#333" d="M115-194c55 1 70 41 70 98S169 2 115 4C84 4 66-9 55-30l1 105H24l-1-265h31l2 30c10-21 28-34 59-34zm-8 174c40 0 45-34 45-75s-6-73-45-74c-42 0-51 32-51 76 0 43 10 73 51 73" id="r"/><path fill="#333" d="M135-143c-3-34-86-38-87 0 15 53 115 12 119 90S17 21 10-45l28-5c4 36 97 45 98 0-10-56-113-15-118-90-4-57 82-63 122-42 12 7 21 19 24 35" id="s"/><g id="d"><use transform="matrix(0.06172839506172839,0,0,0.06172839506172839,0,0)" xlink:href="#r"/><use transform="matrix(0.06172839506172839,0,0,0.06172839506172839,12.345679012345679,0)" xlink:href="#o"/><use transform="matrix(0.06172839506172839,0,0,0.06172839506172839,24.691358024691358,0)" xlink:href="#s"/><use transform="matrix(0.06172839506172839,0,0,0.06172839506172839,35.80246913580247,0)" xlink:href="#j"/></g><path fill="#333" d="M118-107v75H92v-75H18v-26h74v-75h26v75h74v26h-74" id="t"/><use transform="matrix(0.1851851851851852,0,0,0.1851851851851852,0,0)" xlink:href="#t" id="e"/></defs></g></svg>