<svg xmlns="http://www.w3.org/2000/svg" xmlns:xlink="http://www.w3.org/1999/xlink" xmlns:lucid="lucid" width="740" height="630.83"><g transform="translate(-420 -280)" lucid:page-tab-id="0_0"><path d="M490 429.17h240v60H490z" fill="none"/><use xlink:href="#a" transform="matrix(1,0,0,1,490,429.16666666656954) translate(88.58024691358025 34.44444444444444)"/><use xlink:href="#b" transform="matrix(1,0,0,1,490,429.16666666656954) translate(119.44444444444446 34.44444444444444)"/><path d="M480 300h260v60H480z" fill="none"/><use xlink:href="#c" transform="matrix(1,0,0,1,480.0000000000001,300) translate(12.191358024691368 21.111111111111114)"/><use xlink:href="#d" transform="matrix(1,0,0,1,480.0000000000001,300) translate(43.055555555555564 21.111111111111114)"/><use xlink:href="#e" transform="matrix(1,0,0,1,480.0000000000001,300) translate(110.89506172839506 21.111111111111114)"/><use xlink:href="#f" transform="matrix(1,0,0,1,480.0000000000001,300) translate(135.58641975308643 21.111111111111114)"/><use xlink:href="#g" transform="matrix(1,0,0,1,480.0000000000001,300) translate(205.83333333333331 21.111111111111114)"/><use xlink:href="#h" transform="matrix(1,0,0,1,480.0000000000001,300) translate(2.6234567901234698 47.777777777777786)"/><use xlink:href="#d" transform="matrix(1,0,0,1,480.0000000000001,300) translate(33.487654320987666 47.777777777777786)"/><use xlink:href="#e" transform="matrix(1,0,0,1,480.0000000000001,300) translate(101.32716049382717 47.777777777777786)"/><use xlink:href="#f" transform="matrix(1,0,0,1,480.0000000000001,300) translate(126.01851851851852 47.777777777777786)"/><use xlink:href="#i" transform="matrix(1,0,0,1,480.0000000000001,300) translate(196.26543209876542 47.777777777777786)"/><path d="M720 556c0-3.3 2.7-6 6-6h123.38c3.32 0 6 2.7 6 6v21.33c0 3.32-2.68 6-6 6H726c-3.3 0-6-2.68-6-6z" stroke="#5e5e5e" stroke-width="3" fill="#fff"/><use xlink:href="#j" transform="matrix(1,0,0,1,725,554.999999965145) translate(15.530864197530875 19.27777777777778)"/><use xlink:href="#k" transform="matrix(1,0,0,1,725,554.999999965145) translate(85.77777777777777 19.27777777777778)"/><path d="M720 622.67c0-3.32 2.7-6 6-6h123.38c3.32 0 6 2.68 6 6V644c0 3.3-2.68 6-6 6H726c-3.3 0-6-2.7-6-6z" stroke="#5e5e5e" stroke-width="3" fill="#fff"/><use xlink:href="#j" transform="matrix(1,0,0,1,725,621.666666631773) translate(15.530864197530875 19.27777777777778)"/><use xlink:href="#l" transform="matrix(1,0,0,1,725,621.666666631773) translate(85.77777777777777 19.27777777777778)"/><path d="M720 779.33c0-3.3 2.7-6 6-6h123.38c3.32 0 6 2.7 6 6V809c0 3.3-2.68 6-6 6H726c-3.3 0-6-2.7-6-6z" stroke="#5e5e5e" stroke-width="3" fill="#fff"/><use xlink:href="#j" transform="matrix(1,0,0,1,725,778.3333333334882) translate(9.358024691358032 19.77777777777778)"/><use xlink:href="#m" transform="matrix(1,0,0,1,725,778.3333333334882) translate(79.60493827160494 19.77777777777778)"/><path d="M900 546c0-3.3 2.7-6 6-6h228c3.3 0 6 2.7 6 6v108c0 3.3-2.7 6-6 6H906c-3.3 0-6-2.7-6-6z" stroke="#5e5e5e" stroke-width="3" fill="#fff"/><use xlink:href="#n" transform="matrix(1,0,0,1,912,552) translate(34.48765432098766 38.77777777777778)"/><use xlink:href="#o" transform="matrix(1,0,0,1,912,552) translate(72.75925925925927 38.77777777777778)"/><use xlink:href="#p" transform="matrix(1,0,0,1,912,552) translate(67.82098765432099 65.44444444444446)"/><path d="M857.88 566.67H880" stroke="#5e5e5e" stroke-width="2" fill="none"/><path d="M857.9 567.67h-1.02v-2h1.03z" fill="#5e5e5e"/><path d="M895.26 566.67L881 571.3v-9.27z" stroke="#5e5e5e" stroke-width="2" fill="#5e5e5e"/><path d="M857.88 633.33H880" stroke="#5e5e5e" stroke-width="2" fill="none"/><path d="M857.9 634.33h-1.02v-2h1.03z" fill="#5e5e5e"/><path d="M895.26 633.33L881 637.97v-9.27z" stroke="#5e5e5e" stroke-width="2" fill="#5e5e5e"/><path d="M897.5 566.67h-22.1" stroke="#5e5e5e" stroke-width="2" fill="none"/><path d="M898.5 567.67h-1.03v-2h1.03z" fill="#5e5e5e"/><path d="M860.12 566.67l14.27-4.64v9.27z" stroke="#5e5e5e" stroke-width="2" fill="#5e5e5e"/><path d="M897.5 633.33h-22.1" stroke="#5e5e5e" stroke-width="2" fill="none"/><path d="M898.5 634.33h-1.03v-2h1.03z" fill="#5e5e5e"/><path d="M860.12 633.33l14.27-4.63v9.27z" stroke="#5e5e5e" stroke-width="2" fill="#5e5e5e"/><path d="M720 846c0-3.3 2.7-6 6-6h123.38c3.32 0 6 2.7 6 6v28c0 3.3-2.68 6-6 6H726c-3.3 0-6-2.7-6-6z" stroke="#5e5e5e" stroke-width="3" fill="#fff"/><use xlink:href="#j" transform="matrix(1,0,0,1,725.0000000000001,845) translate(9.358024691358032 19.65277777777778)"/><use xlink:href="#q" transform="matrix(1,0,0,1,725.0000000000001,845) translate(79.60493827160494 19.65277777777778)"/><path d="M900 767.67c0-3.32 2.7-6 6-6h228c3.3 0 6 2.68 6 6v108c0 3.3-2.7 6-6 6H906c-3.3 0-6-2.7-6-6z" stroke="#5e5e5e" stroke-width="3" fill="#fff"/><use xlink:href="#n" transform="matrix(1,0,0,1,912,773.6666666666279) translate(34.48765432098766 38.77777777777778)"/><use xlink:href="#o" transform="matrix(1,0,0,1,912,773.6666666666279) translate(72.75925925925927 38.77777777777778)"/><use xlink:href="#p" transform="matrix(1,0,0,1,912,773.6666666666279) translate(67.82098765432099 65.44444444444446)"/><path d="M857.88 794.17H880" stroke="#5e5e5e" stroke-width="2" fill="none"/><path d="M857.9 795.17h-1.02v-2h1.03z" fill="#5e5e5e"/><path d="M895.26 794.17L881 798.8v-9.27z" stroke="#5e5e5e" stroke-width="2" fill="#5e5e5e"/><path d="M897.5 794.17h-22.1" stroke="#5e5e5e" stroke-width="2" fill="none"/><path d="M898.5 795.17h-1.03v-2h1.03z" fill="#5e5e5e"/><path d="M860.12 794.17l14.27-4.64v9.27z" stroke="#5e5e5e" stroke-width="2" fill="#5e5e5e"/><path d="M857.88 860H880" stroke="#5e5e5e" stroke-width="2" fill="none"/><path d="M857.9 861h-1.02v-2h1.03z" fill="#5e5e5e"/><path d="M895.26 860L881 864.64v-9.28z" stroke="#5e5e5e" stroke-width="2" fill="#5e5e5e"/><path d="M897.5 860h-22.1" stroke="#5e5e5e" stroke-width="2" fill="none"/><path d="M898.5 861h-1.03v-2h1.03z" fill="#5e5e5e"/><path d="M860.12 860l14.27-4.64v9.28z" stroke="#5e5e5e" stroke-width="2" fill="#5e5e5e"/><path d="M440 556c0-3.3 2.7-6 6-6h188c3.3 0 6 2.7 6 6v319.67c0 3.3-2.7 6-6 6H446c-3.3 0-6-2.7-6-6z" stroke="#5e5e5e" stroke-width="3" fill="#fff"/><use xlink:href="#r" transform="matrix(1,0,0,1,452,561.999999965145) translate(60.839506172839506 133.27777777777777)"/><use xlink:href="#s" transform="matrix(1,0,0,1,452,561.999999965145) translate(44.26543209876543 159.94444444444443)"/><use xlink:href="#t" transform="matrix(1,0,0,1,452,561.999999965145) translate(60.870370370370374 186.6111111111111)"/><path d="M704 890.83V760l-48 26.17v78.5z" stroke="#5e5e5e" stroke-width="3" fill="#fff"/><path d="M720 890.83h-80V760h80z" fill="none"/><path d="M656 825.42h-16M680 773.08V760M704 854.85h16zM704 795.98h16z" stroke="#5e5e5e" stroke-width="3" fill="#fff"/><path d="M680 760" stroke="#5e5e5e" stroke-width="2" fill="none"/><path fill="#5e5e5e"/><path fill="#5e5e5e"/><path d="M704 660V529.17l-48 26.16v78.5z" stroke="#5e5e5e" stroke-width="3" fill="#fff"/><path d="M720 660h-80V529.17h80z" fill="none"/><path d="M656 594.58h-16M680 542.25v-13.08M704 624.02h16zM704 565.15h16z" stroke="#5e5e5e" stroke-width="3" fill="#fff"/><path d="M570 380h80v40h-80z" fill="none"/><path d="M570 400v-20h40v40h40v-20" stroke="#5e5e5e" stroke-width="3" fill="none"/><path d="M652.5 400.02H674c3.3 0 6 2.7 6 6v122.15" stroke="#5e5e5e" stroke-width="2" fill="none"/><path d="M652.53 401.02h-1.03V400h-3v-.98h4.03zM681 529.17h-2v-1.03h2z" fill="#5e5e5e"/><path d="M680 528.17v-33c0-3.32-2.7-6-6-6h-78c-3.3 0-6 2.68-6 6V734c0 3.3 2.7 6 6 6h78c3.3 0 6 2.7 6 6v13" stroke="#5e5e5e" stroke-width="2" fill="none"/><path d="M681 529.17h-2v-1.03h2zM681 760h-2v-1.03h2z" fill="#5e5e5e"/><path d="M572.5 437.5c-1.38-1.38-1.38-3.62 0-5l1.62-1.62c.48-.48.88-.32.88.37 0 .7.56 1.25 1.25 1.25h67.5c.7 0 1.25-.56 1.25-1.25 0-.7.4-.85.88-.37l1.62 1.62c1.38 1.38 1.38 3.62 0 5l-1.62 1.62c-.48.48-.88.32-.88-.37 0-.7-.56-1.25-1.25-1.25h-67.5c-.7 0-1.25.56-1.25 1.25 0 .7-.4.85-.88.37z" stroke="#5e5e5e" stroke-width="3" fill="#fff"/><path d="M642.5 715.83h139.2c3.3 0 6-2.68 6-6V670" stroke="#5e5e5e" stroke-width="2" fill="none"/><path d="M642.53 716.83h-1.03v-2h1.03z" fill="#5e5e5e"/><path d="M787.7 654.74l4.63 14.26h-9.27z" stroke="#5e5e5e" stroke-width="2" fill="#5e5e5e"/><path d="M642.5 715.83h139.2c3.3 0 6-2.68 6-6v-106.5" stroke="#5e5e5e" stroke-width="2" fill="none"/><path d="M642.53 716.83h-1.03v-2h1.03z" fill="#5e5e5e"/><path d="M787.7 588.07l4.63 14.27h-9.27z" stroke="#5e5e5e" stroke-width="2" fill="#5e5e5e"/><path d="M642.5 715.83h139.2c3.3 0 6 2.7 6 6v31.5" stroke="#5e5e5e" stroke-width="2" fill="none"/><path d="M642.53 716.83h-1.03v-2h1.03z" fill="#5e5e5e"/><path d="M787.7 768.6l-4.64-14.27h9.27z" stroke="#5e5e5e" stroke-width="2" fill="#5e5e5e"/><path d="M642.5 715.83h139.2c3.3 0 6 2.7 6 6V820" stroke="#5e5e5e" stroke-width="2" fill="none"/><path d="M642.53 716.83h-1.03v-2h1.03z" fill="#5e5e5e"/><path d="M787.7 835.26L783.05 821h9.27z" stroke="#5e5e5e" stroke-width="2" fill="#5e5e5e"/><path d="M1000 742.1c0-2.28 1.3-5.4 2.9-7 1.6-1.6 4.74-2.9 7-2.9h.2c2.26 0 5.4 1.3 7 2.9 1.6 1.6 2.9 4.72 2.9 7v.2c0 2.25-1.3 5.4-2.9 7-1.6 1.6-4.74 2.9-7 2.9h-.2c-2.26 0-5.4-1.3-7-2.9-1.6-1.6-2.9-4.75-2.9-7zM1000 681.57c0-2.27 1.3-5.4 2.9-7 1.6-1.6 4.74-2.9 7-2.9h.2c2.26 0 5.4 1.3 7 2.9 1.6 1.6 2.9 4.73 2.9 7v.2c0 2.26-1.3 5.4-2.9 7-1.6 1.6-4.74 2.9-7 2.9h-.2c-2.26 0-5.4-1.3-7-2.9-1.6-1.6-2.9-4.74-2.9-7zM1000 712.6c0-2.26 1.3-5.4 2.9-7 1.6-1.6 4.74-2.9 7-2.9h.2c2.26 0 5.4 1.3 7 2.9 1.6 1.6 2.9 4.74 2.9 7v.2c0 2.27-1.3 5.4-2.9 7-1.6 1.6-4.74 2.9-7 2.9h-.2c-2.26 0-5.4-1.3-7-2.9-1.6-1.6-2.9-4.73-2.9-7z" stroke="#5e5e5e" stroke-width="3" fill="#fff"/><defs><path fill="#333" d="M126-127c33 6 58 20 58 59 0 88-139 92-164 29-3-8-5-16-6-25l32-3c6 27 21 44 54 44 32 0 52-15 52-46 0-38-36-46-79-43v-28c39 1 72-4 72-42 0-27-17-43-46-43-28 0-47 15-49 41l-32-3c6-42 35-63 81-64 48-1 79 21 79 65 0 36-21 52-52 59" id="u"/><path fill="#333" d="M101-251c82-7 93 87 43 132L82-64C71-53 59-42 53-27h129V0H18c2-99 128-94 128-182 0-28-16-43-45-43s-46 15-49 41l-32-3c6-41 34-60 81-64" id="v"/><g id="a"><use transform="matrix(0.06172839506172839,0,0,0.06172839506172839,0,0)" xlink:href="#u"/><use transform="matrix(0.06172839506172839,0,0,0.06172839506172839,12.345679012345679,0)" xlink:href="#v"/></g><path fill="#333" d="M212-179c-10-28-35-45-73-45-59 0-87 40-87 99 0 60 29 101 89 101 43 0 62-24 78-52l27 14C228-24 195 4 139 4 59 4 22-46 18-125c-6-104 99-153 187-111 19 9 31 26 39 46" id="w"/><g id="b"><use transform="matrix(0.06172839506172839,0,0,0.06172839506172839,0,0)" xlink:href="#w"/><use transform="matrix(0.06172839506172839,0,0,0.06172839506172839,15.987654320987653,0)" xlink:href="#w"/></g><path fill="#333" d="M27 0v-27h64v-190l-56 39v-29l58-41h29v221h61V0H27" id="x"/><path fill="#333" d="M110-160c48 1 74 30 74 79 0 53-28 85-80 85-65 0-83-55-86-122-5-90 50-162 133-122 14 7 22 21 27 39l-31 6c-5-40-67-38-82-6-9 19-15 44-15 74 11-20 30-34 60-33zm-7 138c34 0 49-23 49-58s-16-56-50-56c-29 0-50 16-49 49 1 36 15 65 50 65" id="y"/><g id="c"><use transform="matrix(0.06172839506172839,0,0,0.06172839506172839,0,0)" xlink:href="#x"/><use transform="matrix(0.06172839506172839,0,0,0.06172839506172839,12.345679012345679,0)" xlink:href="#y"/></g><path fill="#333" d="M96-169c-40 0-48 33-48 73s9 75 48 75c24 0 41-14 43-38l32 2c-6 37-31 61-74 61-59 0-76-41-82-99-10-93 101-131 147-64 4 7 5 14 7 22l-32 3c-4-21-16-35-41-35" id="z"/><path fill="#333" d="M179-190L93 31C79 59 56 82 12 73V49c39 6 53-20 64-50L1-190h34L92-34l54-156h33" id="A"/><path fill="#333" d="M24 0v-261h32V0H24" id="B"/><path fill="#333" d="M100-194c63 0 86 42 84 106H49c0 40 14 67 53 68 26 1 43-12 49-29l28 8c-11 28-37 45-77 45C44 4 14-33 15-96c1-61 26-98 85-98zm52 81c6-60-76-77-97-28-3 7-6 17-6 28h103" id="C"/><path fill="#333" d="M135-143c-3-34-86-38-87 0 15 53 115 12 119 90S17 21 10-45l28-5c4 36 97 45 98 0-10-56-113-15-118-90-4-57 82-63 122-42 12 7 21 19 24 35" id="D"/><g id="d"><use transform="matrix(0.06172839506172839,0,0,0.06172839506172839,0,0)" xlink:href="#z"/><use transform="matrix(0.06172839506172839,0,0,0.06172839506172839,11.11111111111111,0)" xlink:href="#A"/><use transform="matrix(0.06172839506172839,0,0,0.06172839506172839,22.22222222222222,0)" xlink:href="#z"/><use transform="matrix(0.06172839506172839,0,0,0.06172839506172839,33.33333333333333,0)" xlink:href="#B"/><use transform="matrix(0.06172839506172839,0,0,0.06172839506172839,38.20987654320987,0)" xlink:href="#C"/><use transform="matrix(0.06172839506172839,0,0,0.06172839506172839,50.55555555555555,0)" xlink:href="#D"/></g><path fill="#333" d="M100-194c62-1 85 37 85 99 1 63-27 99-86 99S16-35 15-95c0-66 28-99 85-99zM99-20c44 1 53-31 53-75 0-43-8-75-51-75s-53 32-53 75 10 74 51 75" id="E"/><path fill="#333" d="M101-234c-31-9-42 10-38 44h38v23H63V0H32v-167H5v-23h27c-7-52 17-82 69-68v24" id="F"/><g id="e"><use transform="matrix(0.06172839506172839,0,0,0.06172839506172839,0,0)" xlink:href="#E"/><use transform="matrix(0.06172839506172839,0,0,0.06172839506172839,12.345679012345679,0)" xlink:href="#F"/></g><path fill="#333" d="M160-131c35 5 61 23 61 61C221 17 115-2 30 0v-248c76 3 177-17 177 60 0 33-19 50-47 57zm-97-11c50-1 110 9 110-42 0-47-63-36-110-37v79zm0 115c55-2 124 14 124-45 0-56-70-42-124-44v89" id="G"/><path fill="#333" d="M233-177c-1 41-23 64-60 70L243 0h-38l-65-103H63V0H30v-248c88 3 205-21 203 71zM63-129c60-2 137 13 137-47 0-61-80-42-137-45v92" id="H"/><path fill="#333" d="M205 0l-28-72H64L36 0H1l101-248h38L239 0h-34zm-38-99l-47-123c-12 45-31 82-46 123h93" id="I"/><path fill="#333" d="M240 0l2-218c-23 76-54 145-80 218h-23L58-218 59 0H30v-248h44l77 211c21-75 51-140 76-211h43V0h-30" id="J"/><g id="f"><use transform="matrix(0.06172839506172839,0,0,0.06172839506172839,0,0)" xlink:href="#G"/><use transform="matrix(0.06172839506172839,0,0,0.06172839506172839,14.814814814814813,0)" xlink:href="#H"/><use transform="matrix(0.06172839506172839,0,0,0.06172839506172839,30.80246913580247,0)" xlink:href="#I"/><use transform="matrix(0.06172839506172839,0,0,0.06172839506172839,45.61728395061728,0)" xlink:href="#J"/></g><path fill="#333" d="M158-156l-14 65h45v19h-49L124 0h-19l15-72H56L41 0H22l15-72H2v-19h39l14-65H11v-19h48l15-71h20l-16 71h64l16-71h19l-16 71h37v19h-40zm-83 0L61-91h63l14-65H75" id="K"/><path fill="#333" d="M143 0L79-87 56-68V0H24v-261h32v163l83-92h37l-77 82L181 0h-38" id="L"/><path fill="#333" d="M68-38c1 34 0 65-14 84H32c9-13 17-26 17-46H33v-38h35" id="M"/><g id="g"><use transform="matrix(0.06172839506172839,0,0,0.06172839506172839,0,0)" xlink:href="#K"/><use transform="matrix(0.06172839506172839,0,0,0.06172839506172839,12.345679012345679,0)" xlink:href="#v"/><use transform="matrix(0.06172839506172839,0,0,0.06172839506172839,24.691358024691358,0)" xlink:href="#L"/><use transform="matrix(0.06172839506172839,0,0,0.06172839506172839,35.80246913580247,0)" xlink:href="#M"/></g><g id="h"><use transform="matrix(0.06172839506172839,0,0,0.06172839506172839,0,0)" xlink:href="#x"/><use transform="matrix(0.06172839506172839,0,0,0.06172839506172839,12.345679012345679,0)" xlink:href="#y"/></g><path fill="#333" d="M118-107v75H92v-75H18v-26h74v-75h26v75h74v26h-74" id="N"/><g id="i"><use transform="matrix(0.06172839506172839,0,0,0.06172839506172839,0,0)" xlink:href="#K"/><use transform="matrix(0.06172839506172839,0,0,0.06172839506172839,12.345679012345679,0)" xlink:href="#v"/><use transform="matrix(0.06172839506172839,0,0,0.06172839506172839,24.691358024691358,0)" xlink:href="#L"/><use transform="matrix(0.06172839506172839,0,0,0.06172839506172839,35.80246913580247,0)" xlink:href="#N"/><use transform="matrix(0.06172839506172839,0,0,0.06172839506172839,48.76543209876543,0)" xlink:href="#x"/></g><g id="j"><use transform="matrix(0.06172839506172839,0,0,0.06172839506172839,0,0)" xlink:href="#G"/><use transform="matrix(0.06172839506172839,0,0,0.06172839506172839,14.814814814814813,0)" xlink:href="#H"/><use transform="matrix(0.06172839506172839,0,0,0.06172839506172839,30.80246913580247,0)" xlink:href="#I"/><use transform="matrix(0.06172839506172839,0,0,0.06172839506172839,45.61728395061728,0)" xlink:href="#J"/></g><path fill="#333" d="M101-251c68 0 85 55 85 127S166 4 100 4C33 4 14-52 14-124c0-73 17-127 87-127zm-1 229c47 0 54-49 54-102s-4-102-53-102c-51 0-55 48-55 102 0 53 5 102 54 102" id="O"/><g id="k"><use transform="matrix(0.06172839506172839,0,0,0.06172839506172839,0,0)" xlink:href="#K"/><use transform="matrix(0.06172839506172839,0,0,0.06172839506172839,12.345679012345679,0)" xlink:href="#O"/></g><g id="l"><use transform="matrix(0.06172839506172839,0,0,0.06172839506172839,0,0)" xlink:href="#K"/><use transform="matrix(0.06172839506172839,0,0,0.06172839506172839,12.345679012345679,0)" xlink:href="#x"/></g><g id="m"><use transform="matrix(0.06172839506172839,0,0,0.06172839506172839,0,0)" xlink:href="#K"/><use transform="matrix(0.06172839506172839,0,0,0.06172839506172839,12.345679012345679,0)" xlink:href="#y"/><use transform="matrix(0.06172839506172839,0,0,0.06172839506172839,24.691358024691358,0)" xlink:href="#v"/></g><path fill="#333" d="M143 4C61 4 22-44 18-125c-5-107 100-154 193-111 17 8 29 25 37 43l-32 9c-13-25-37-40-76-40-61 0-88 39-88 99 0 61 29 100 91 101 35 0 62-11 79-27v-45h-74v-28h105v86C228-13 192 4 143 4" id="P"/><path fill="#333" d="M185-189c-5-48-123-54-124 2 14 75 158 14 163 119 3 78-121 87-175 55-17-10-28-26-33-46l33-7c5 56 141 63 141-1 0-78-155-14-162-118-5-82 145-84 179-34 5 7 8 16 11 25" id="Q"/><g id="n"><use transform="matrix(0.06172839506172839,0,0,0.06172839506172839,0,0)" xlink:href="#P"/><use transform="matrix(0.06172839506172839,0,0,0.06172839506172839,17.28395061728395,0)" xlink:href="#Q"/></g><path fill="#333" d="M30-248c87 1 191-15 191 75 0 78-77 80-158 76V0H30v-248zm33 125c57 0 124 11 124-50 0-59-68-47-124-48v98" id="R"/><path fill="#333" d="M114-163C36-179 61-72 57 0H25l-1-190h30c1 12-1 29 2 39 6-27 23-49 58-41v29" id="S"/><path fill="#333" d="M24-231v-30h32v30H24zM24 0v-190h32V0H24" id="T"/><path fill="#333" d="M117-194c89-4 53 116 60 194h-32v-121c0-31-8-49-39-48C34-167 62-67 57 0H25l-1-190h30c1 10-1 24 2 32 11-22 29-35 61-36" id="U"/><path fill="#333" d="M177-190C167-65 218 103 67 71c-23-6-38-20-44-43l32-5c15 47 100 32 89-28v-30C133-14 115 1 83 1 29 1 15-40 15-95c0-56 16-97 71-98 29-1 48 16 59 35 1-10 0-23 2-32h30zM94-22c36 0 50-32 50-73 0-42-14-75-50-75-39 0-46 34-46 75s6 73 46 73" id="V"/><g id="o"><use transform="matrix(0.06172839506172839,0,0,0.06172839506172839,0,0)" xlink:href="#R"/><use transform="matrix(0.06172839506172839,0,0,0.06172839506172839,14.814814814814813,0)" xlink:href="#S"/><use transform="matrix(0.06172839506172839,0,0,0.06172839506172839,22.160493827160494,0)" xlink:href="#E"/><use transform="matrix(0.06172839506172839,0,0,0.06172839506172839,34.50617283950617,0)" xlink:href="#z"/><use transform="matrix(0.06172839506172839,0,0,0.06172839506172839,45.61728395061728,0)" xlink:href="#C"/><use transform="matrix(0.06172839506172839,0,0,0.06172839506172839,57.962962962962955,0)" xlink:href="#D"/><use transform="matrix(0.06172839506172839,0,0,0.06172839506172839,69.07407407407406,0)" xlink:href="#D"/><use transform="matrix(0.06172839506172839,0,0,0.06172839506172839,80.18518518518518,0)" xlink:href="#T"/><use transform="matrix(0.06172839506172839,0,0,0.06172839506172839,85.06172839506172,0)" xlink:href="#U"/><use transform="matrix(0.06172839506172839,0,0,0.06172839506172839,97.4074074074074,0)" xlink:href="#V"/></g><path fill="#333" d="M30 0v-248h187v28H63v79h144v27H63v87h162V0H30" id="W"/><path fill="#333" d="M210-169c-67 3-38 105-44 169h-31v-121c0-29-5-50-35-48C34-165 62-65 56 0H25l-1-190h30c1 10-1 24 2 32 10-44 99-50 107 0 11-21 27-35 58-36 85-2 47 119 55 194h-31v-121c0-29-5-49-35-48" id="X"/><path fill="#333" d="M59-47c-2 24 18 29 38 22v24C64 9 27 4 27-40v-127H5v-23h24l9-43h21v43h35v23H59v120" id="Y"/><g id="p"><use transform="matrix(0.06172839506172839,0,0,0.06172839506172839,0,0)" xlink:href="#W"/><use transform="matrix(0.06172839506172839,0,0,0.06172839506172839,14.814814814814813,0)" xlink:href="#B"/><use transform="matrix(0.06172839506172839,0,0,0.06172839506172839,19.691358024691354,0)" xlink:href="#C"/><use transform="matrix(0.06172839506172839,0,0,0.06172839506172839,32.03703703703703,0)" xlink:href="#X"/><use transform="matrix(0.06172839506172839,0,0,0.06172839506172839,50.49382716049382,0)" xlink:href="#C"/><use transform="matrix(0.06172839506172839,0,0,0.06172839506172839,62.8395061728395,0)" xlink:href="#U"/><use transform="matrix(0.06172839506172839,0,0,0.06172839506172839,75.18518518518518,0)" xlink:href="#Y"/></g><g id="q"><use transform="matrix(0.06172839506172839,0,0,0.06172839506172839,0,0)" xlink:href="#K"/><use transform="matrix(0.06172839506172839,0,0,0.06172839506172839,12.345679012345679,0)" xlink:href="#y"/><use transform="matrix(0.06172839506172839,0,0,0.06172839506172839,24.691358024691358,0)" xlink:href="#u"/></g><path fill="#333" d="M33 0v-248h34V0H33" id="Z"/><path fill="#333" d="M85-194c31 0 48 13 60 33l-1-100h32l1 261h-30c-2-10 0-23-3-31C134-8 116 4 85 4 32 4 16-35 15-94c0-66 23-100 70-100zm9 24c-40 0-46 34-46 75 0 40 6 74 45 74 42 0 51-32 51-76 0-42-9-74-50-73" id="aa"/><path fill="#333" d="M141 0L90-78 38 0H4l68-98-65-92h35l48 74 47-74h35l-64 92 68 98h-35" id="ab"/><g id="r"><use transform="matrix(0.06172839506172839,0,0,0.06172839506172839,0,0)" xlink:href="#Z"/><use transform="matrix(0.06172839506172839,0,0,0.06172839506172839,6.172839506172839,0)" xlink:href="#U"/><use transform="matrix(0.06172839506172839,0,0,0.06172839506172839,18.51851851851852,0)" xlink:href="#aa"/><use transform="matrix(0.06172839506172839,0,0,0.06172839506172839,30.864197530864196,0)" xlink:href="#C"/><use transform="matrix(0.06172839506172839,0,0,0.06172839506172839,43.20987654320987,0)" xlink:href="#ab"/></g><path fill="#333" d="M108 0H70L1-190h34L89-25l56-165h34" id="ac"/><path fill="#333" d="M141-36C126-15 110 5 73 4 37 3 15-17 15-53c-1-64 63-63 125-63 3-35-9-54-41-54-24 1-41 7-42 31l-33-3c5-37 33-52 76-52 45 0 72 20 72 64v82c-1 20 7 32 28 27v20c-31 9-61-2-59-35zM48-53c0 20 12 33 32 33 41-3 63-29 60-74-43 2-92-5-92 41" id="ad"/><g id="s"><use transform="matrix(0.06172839506172839,0,0,0.06172839506172839,0,0)" xlink:href="#H"/><use transform="matrix(0.06172839506172839,0,0,0.06172839506172839,15.987654320987653,0)" xlink:href="#C"/><use transform="matrix(0.06172839506172839,0,0,0.06172839506172839,28.333333333333332,0)" xlink:href="#ac"/><use transform="matrix(0.06172839506172839,0,0,0.06172839506172839,39.44444444444444,0)" xlink:href="#C"/><use transform="matrix(0.06172839506172839,0,0,0.06172839506172839,51.79012345679012,0)" xlink:href="#S"/><use transform="matrix(0.06172839506172839,0,0,0.06172839506172839,59.1358024691358,0)" xlink:href="#D"/><use transform="matrix(0.06172839506172839,0,0,0.06172839506172839,70.24691358024691,0)" xlink:href="#ad"/><use transform="matrix(0.06172839506172839,0,0,0.06172839506172839,82.5925925925926,0)" xlink:href="#B"/></g><g id="t"><use transform="matrix(0.06172839506172839,0,0,0.06172839506172839,0,0)" xlink:href="#G"/><use transform="matrix(0.06172839506172839,0,0,0.06172839506172839,14.814814814814813,0)" xlink:href="#B"/><use transform="matrix(0.06172839506172839,0,0,0.06172839506172839,19.691358024691354,0)" xlink:href="#E"/><use transform="matrix(0.06172839506172839,0,0,0.06172839506172839,32.03703703703703,0)" xlink:href="#z"/><use transform="matrix(0.06172839506172839,0,0,0.06172839506172839,43.14814814814814,0)" xlink:href="#L"/></g></defs></g></svg>