<svg xmlns="http://www.w3.org/2000/svg" xmlns:xlink="http://www.w3.org/1999/xlink" xmlns:lucid="lucid" width="1231" height="502.13"><g transform="translate(-100 -559.2913385826773)" lucid:page-tab-id="0_0"><path d="M901 600h199M901.03 600H900" stroke="#5e5e5e" stroke-width="2" fill="none"/><path d="M1115.26 600l-14.26 4.64v-9.28z" stroke="#5e5e5e" stroke-width="2" fill="#5e5e5e"/><path d="M901 659.3H1100M901.03 659.3H900" stroke="#5e5e5e" stroke-width="2" fill="none"/><path d="M1115.26 659.3l-14.27 4.63v-9.27z" stroke="#5e5e5e" stroke-width="2" fill="#5e5e5e"/><path d="M1160 659.3c0 11.43-8.95 20.7-20 20.7s-20-9.27-20-20.7c0-11.45 8.95-20.72 20-20.72s20 9.27 20 20.7z" stroke="#5e5e5e" stroke-width="3" fill="#fff"/><use xlink:href="#a" transform="matrix(1,0,0,1,1125,643.5826770976154) translate(11.327160493827162 19.77777777777778)"/><path d="M1160 600c0 11.44-8.95 20.7-20 20.7s-20-9.26-20-20.7 8.95-20.7 20-20.7 20 9.26 20 20.7z" stroke="#5e5e5e" stroke-width="3" fill="#fff"/><use xlink:href="#b" transform="matrix(1,0,0,1,1125,584.2913385826773) translate(8.518518518518519 19.77777777777778)"/><path d="M901 719.3h199M901.03 719.3H900" stroke="#5e5e5e" stroke-width="2" fill="none"/><path d="M1115.26 719.3l-14.26 4.63v-9.27z" stroke="#5e5e5e" stroke-width="2" fill="#5e5e5e"/><path d="M901 779.3h199M901.03 779.3H900" stroke="#5e5e5e" stroke-width="2" fill="none"/><path d="M1115.26 779.3l-14.26 4.63v-9.27z" stroke="#5e5e5e" stroke-width="2" fill="#5e5e5e"/><path d="M1160 779.3c0 11.43-8.95 20.7-20 20.7s-20-9.27-20-20.7c0-11.45 8.95-20.72 20-20.72s20 9.27 20 20.7z" stroke="#5e5e5e" stroke-width="3" fill="#fff"/><use xlink:href="#a" transform="matrix(1,0,0,1,1125,763.5826771653545) translate(11.327160493827162 19.77777777777778)"/><path d="M1160 719.3c0 11.43-8.95 20.7-20 20.7s-20-9.27-20-20.7c0-11.45 8.95-20.72 20-20.72s20 9.27 20 20.7z" stroke="#5e5e5e" stroke-width="3" fill="#fff"/><use xlink:href="#b" transform="matrix(1,0,0,1,1125,703.5826771653545) translate(8.518518518518519 19.77777777777778)"/><path d="M900.98 599.5l203.77 42.83M901 599.5l-1-.2" stroke="#5e5e5e" stroke-width="2" fill="none"/><path d="M1119.7 645.47l-14.93 1.6 1.9-9.07z" stroke="#5e5e5e" stroke-width="2" fill="#5e5e5e"/><path d="M900.98 659.8l204.1-42.33M901 659.8l-1 .2" stroke="#5e5e5e" stroke-width="2" fill="none"/><path d="M1120.03 614.37L1107 621.8l-1.88-9.08z" stroke="#5e5e5e" stroke-width="2" fill="#5e5e5e"/><path d="M902.46 779.73l198.22-55.45" stroke="#5e5e5e" stroke-width="2" fill="none"/><path d="M902.76 780.7l-1.38.37.12-1-.04-1.1.76-.2z" fill="#5e5e5e"/><path d="M1115.38 720.16l-12.5 8.3-2.5-8.92z" stroke="#5e5e5e" stroke-width="2" fill="#5e5e5e"/><path d="M902.5 840H1100M902.53 840h-1.03" stroke="#5e5e5e" stroke-width="2" fill="none"/><path d="M1115.26 840l-14.26 4.64v-9.28z" stroke="#5e5e5e" stroke-width="2" fill="#5e5e5e"/><path d="M902.5 899.3H1100M902.53 899.3h-1.03" stroke="#5e5e5e" stroke-width="2" fill="none"/><path d="M1115.26 899.3l-14.26 4.63v-9.27z" stroke="#5e5e5e" stroke-width="2" fill="#5e5e5e"/><path d="M1160 899.3c0 11.43-8.95 20.7-20 20.7s-20-9.27-20-20.7c0-11.45 8.95-20.72 20-20.72s20 9.27 20 20.7z" stroke="#5e5e5e" stroke-width="3" fill="#fff"/><use xlink:href="#a" transform="matrix(1,0,0,1,1125,883.5826770976154) translate(11.327160493827162 19.77777777777778)"/><path d="M1160 840c0 11.44-8.95 20.7-20 20.7s-20-9.26-20-20.7 8.95-20.7 20-20.7 20 9.26 20 20.7z" stroke="#5e5e5e" stroke-width="3" fill="#fff"/><use xlink:href="#b" transform="matrix(1,0,0,1,1125,824.2913385826773) translate(8.518518518518519 19.77777777777778)"/><path d="M902.5 960H1100M902.53 960h-1.03" stroke="#5e5e5e" stroke-width="2" fill="none"/><path d="M1115.26 960l-14.26 4.64v-9.28z" stroke="#5e5e5e" stroke-width="2" fill="#5e5e5e"/><path d="M902.5 1019.3H1100M902.53 1019.3h-1.03" stroke="#5e5e5e" stroke-width="2" fill="none"/><path d="M1115.26 1019.3l-14.27 4.63v-9.27z" stroke="#5e5e5e" stroke-width="2" fill="#5e5e5e"/><path d="M1160 1019.3c0 11.43-8.95 20.7-20 20.7s-20-9.27-20-20.7c0-11.45 8.95-20.72 20-20.72s20 9.27 20 20.7z" stroke="#5e5e5e" stroke-width="3" fill="#fff"/><use xlink:href="#a" transform="matrix(1,0,0,1,1125,1003.5826771653545) translate(11.327160493827162 19.77777777777778)"/><path d="M1160 960c0 11.44-8.95 20.7-20 20.7s-20-9.26-20-20.7 8.95-20.7 20-20.7 20 9.26 20 20.7z" stroke="#5e5e5e" stroke-width="3" fill="#fff"/><use xlink:href="#b" transform="matrix(1,0,0,1,1125,944.2913385826773) translate(8.518518518518519 19.77777777777778)"/><path d="M902.48 840.2l201.9 42.67M902.5 840.2l-1-.2" stroke="#5e5e5e" stroke-width="2" fill="none"/><path d="M1119.3 886.02l-14.9 1.6 1.9-9.08z" stroke="#5e5e5e" stroke-width="2" fill="#5e5e5e"/><path d="M900.98 899.8l204.1-42.33M901 899.8l-1 .2" stroke="#5e5e5e" stroke-width="2" fill="none"/><path d="M1120.03 854.37L1107 861.8l-1.88-9.08z" stroke="#5e5e5e" stroke-width="2" fill="#5e5e5e"/><path d="M902.48 1019.1l202.84-41.4M902.5 1019.1l-1 .2" stroke="#5e5e5e" stroke-width="2" fill="none"/><path d="M1120.28 974.64l-13.05 7.4-1.86-9.1z" stroke="#5e5e5e" stroke-width="2" fill="#5e5e5e"/><path d="M121.28 600.7h199.04m-199.04 0H120" stroke="#5e5e5e" stroke-width="1.56" fill-opacity="0"/><path d="M335.04 600.7l-14.08 4.6v-9.2z" stroke="#5e5e5e" stroke-width="1.56" fill="#5e5e5e"/><path d="M121.28 659.58h199.04m-199.04 0H120" stroke="#5e5e5e" stroke-width="1.56" fill-opacity="0"/><path d="M335.04 659.58l-14.08 4.6v-9.2z" stroke="#5e5e5e" stroke-width="1.56" fill="#5e5e5e"/><path d="M379.84 659.58c0 11.5-8.96 20.7-19.84 20.7-10.88 0-19.84-9.2-19.84-20.7s8.96-20.7 19.84-20.7c10.88 0 19.84 9.2 19.84 20.7z" stroke="#5e5e5e" stroke-width="2.34" fill="#fff"/><path d="M360.64 657.28v4.6h-1.28v-4.6h-4.48v-1.84h4.48v-4.6h1.28v4.6h4.48v1.84h-4.48" stroke="#000" stroke-opacity="0" stroke-width=".05" fill="#333"/><path d="M379.84 600.7c0 11.5-8.96 20.7-19.84 20.7-10.88 0-19.84-9.2-19.84-20.7S349.12 580 360 580c10.88 0 19.84 9.2 19.84 20.7z" stroke="#5e5e5e" stroke-width="2.34" fill="#fff"/><path d="M360.64 597.94v4.6h-1.28v-4.6h-4.48v-1.38h4.48v-4.6h1.28v4.6h4.48v1.38h-4.48" stroke="#000" stroke-opacity="0" stroke-width=".05" fill="#333"/><path d="M121.28 721.68h199.04m-199.04 0H120" stroke="#5e5e5e" stroke-width="1.56" fill-opacity="0"/><path d="M335.04 721.68l-14.08 4.6v-9.2z" stroke="#5e5e5e" stroke-width="1.56" fill="#5e5e5e"/><path d="M121.28 779.18h199.04m-199.04 0H120" stroke="#5e5e5e" stroke-width="1.56" fill-opacity="0"/><path d="M335.04 779.18l-14.08 4.6v-9.2z" stroke="#5e5e5e" stroke-width="1.56" fill="#5e5e5e"/><path d="M379.84 779.18c0 11.5-8.96 20.7-19.84 20.7-10.88 0-19.84-9.2-19.84-20.7s8.96-20.7 19.84-20.7c10.88 0 19.84 9.2 19.84 20.7z" stroke="#5e5e5e" stroke-width="2.34" fill="#fff"/><path d="M360.64 776.42v4.6h-1.28v-4.6h-4.48v-1.38h4.48v-4.6h1.28v4.6h4.48v1.38h-4.48" stroke="#000" stroke-opacity="0" stroke-width=".05" fill="#333"/><path d="M379.84 721.68c0 11.04-8.96 20.24-19.84 20.24-10.88 0-19.84-9.2-19.84-20.24 0-11.5 8.96-20.7 19.84-20.7 10.88 0 19.84 9.2 19.84 20.7z" stroke="#5e5e5e" stroke-width="2.34" fill="#fff"/><path d="M360.64 718.92v4.6h-1.28v-4.6h-4.48v-1.38h4.48v-4.6h1.28v4.6h4.48v1.38h-4.48" stroke="#000" stroke-opacity="0" stroke-width=".05" fill="#333"/><path d="M121.28 839.44h199.04m-199.04 0H120" stroke="#5e5e5e" stroke-width="1.56" fill-opacity="0"/><path d="M335.04 839.44l-14.08 4.6v-9.2z" stroke="#5e5e5e" stroke-width="1.56" fill="#5e5e5e"/><path d="M121.28 900.16h199.04m-199.04 0H120" stroke="#5e5e5e" stroke-width="1.56" fill-opacity="0"/><path d="M335.04 900.16l-14.08 4.6v-9.66z" stroke="#5e5e5e" stroke-width="1.56" fill="#5e5e5e"/><path d="M379.84 900.16c0 11.04-8.96 20.24-19.84 20.24-10.88 0-19.84-9.2-19.84-20.24 0-11.5 8.96-20.7 19.84-20.7 10.88 0 19.84 9.2 19.84 20.7z" stroke="#5e5e5e" stroke-width="2.34" fill="#fff"/><path d="M357.44 898.78v-1.38h5.12v1.38h-5.12" stroke="#000" stroke-opacity="0" stroke-width=".05" fill="#333"/><path d="M379.84 839.44c0 11.5-8.96 20.7-19.84 20.7-10.88 0-19.84-9.2-19.84-20.7s8.96-20.7 19.84-20.7c10.88 0 19.84 9.2 19.84 20.7z" stroke="#5e5e5e" stroke-width="2.34" fill="#fff"/><path d="M357.44 838.52v-1.84h5.12v1.84h-5.12" stroke="#000" stroke-opacity="0" stroke-width=".05" fill="#333"/><path d="M121.28 959.04h199.04m-199.04 0H120" stroke="#5e5e5e" stroke-width="1.56" fill-opacity="0"/><path d="M335.04 959.04l-14.08 4.6v-9.2z" stroke="#5e5e5e" stroke-width="1.56" fill="#5e5e5e"/><path d="M121.28 1019.3h199.04m-199.04 0H120" stroke="#5e5e5e" stroke-width="1.56" fill-opacity="0"/><path d="M335.04 1019.3l-14.08 4.6v-9.2z" stroke="#5e5e5e" stroke-width="1.56" fill="#5e5e5e"/><path d="M379.84 1019.3c0 11.5-8.96 20.7-19.84 20.7-10.88 0-19.84-9.2-19.84-20.7s8.96-20.7 19.84-20.7c10.88 0 19.84 9.2 19.84 20.7z" stroke="#5e5e5e" stroke-width="2.34" fill="#fff"/><path d="M357.44 1018.38v-1.84h5.12v1.84h-5.12" stroke="#000" stroke-opacity="0" stroke-width=".05" fill="#333"/><path d="M379.84 959.04c0 11.5-8.96 20.7-19.84 20.7-10.88 0-19.84-9.2-19.84-20.7s8.96-20.7 19.84-20.7c10.88 0 19.84 9.2 19.84 20.7z" stroke="#5e5e5e" stroke-width="2.34" fill="#fff"/><path d="M357.44 958.12v-1.84h5.12v1.84h-5.12" stroke="#000" stroke-opacity="0" stroke-width=".05" fill="#333"/><path d="M120.64 600.7l211.2 210.22M120.64 600.7l-.64-.92" stroke="#5e5e5e" stroke-width="1.56" fill-opacity="0"/><path d="M342.72 821.5l-13.44-6.9 6.4-6.44z" stroke="#5e5e5e" stroke-width="1.56" fill="#5e5e5e"/><path d="M121.92 660.5l209.92 211.14M121.92 660.5l-.64-.92" stroke="#5e5e5e" stroke-width="1.56" fill-opacity="0"/><path d="M342.72 882.22l-13.44-6.9 6.4-6.44z" stroke="#5e5e5e" stroke-width="1.56" fill="#5e5e5e"/><path d="M120.64 719.84l211.2 210.22M120.64 720.3l-.64-.92" stroke="#5e5e5e" stroke-width="1.56" fill-opacity="0"/><path d="M342.72 941.1l-13.44-6.9 6.4-6.44z" stroke="#5e5e5e" stroke-width="1.56" fill="#5e5e5e"/><path d="M120.64 781.02l211.2 209.76m-211.2-209.76l-.64-.92" stroke="#5e5e5e" stroke-width="1.56" fill-opacity="0"/><path d="M342.72 1001.82l-13.44-6.9 6.4-6.44z" stroke="#5e5e5e" stroke-width="1.56" fill="#5e5e5e"/><path d="M500.8 600.7h199.04m-199.04 0h-.64" stroke="#5e5e5e" stroke-width="1.56" fill-opacity="0"/><path d="M715.2 600.7l-14.08 4.6v-9.2z" stroke="#5e5e5e" stroke-width="1.56" fill="#5e5e5e"/><path d="M500.8 659.58h199.04m-199.04 0h-.64" stroke="#5e5e5e" stroke-width="1.56" fill-opacity="0"/><path d="M715.2 659.58l-14.08 4.6v-9.2z" stroke="#5e5e5e" stroke-width="1.56" fill="#5e5e5e"/><path d="M760 659.58c0 11.5-8.96 20.7-19.84 20.7-11.52 0-19.84-9.2-19.84-20.7s8.32-20.7 19.84-20.7c10.88 0 19.84 9.2 19.84 20.7z" stroke="#5e5e5e" stroke-width="2.34" fill="#fff"/><path d="M740.8 657.28v4.6h-1.92v-4.6h-4.48v-1.84h4.48v-4.6h1.92v4.6h4.48v1.84h-4.48" stroke="#000" stroke-opacity="0" stroke-width=".05" fill="#333"/><path d="M760 600.7c0 11.5-8.96 20.7-19.84 20.7-11.52 0-19.84-9.2-19.84-20.7s8.32-20.7 19.84-20.7c10.88 0 19.84 9.2 19.84 20.7z" stroke="#5e5e5e" stroke-width="2.34" fill="#fff"/><path d="M740.8 597.94v4.6h-1.92v-4.6h-4.48v-1.38h4.48v-4.6h1.92v4.6h4.48v1.38h-4.48" stroke="#000" stroke-opacity="0" stroke-width=".05" fill="#333"/><path d="M500.8 719.38h199.04m-199.04 0h-.64" stroke="#5e5e5e" stroke-width="1.56" fill-opacity="0"/><path d="M715.2 719.38l-14.08 4.6v-9.2z" stroke="#5e5e5e" stroke-width="1.56" fill="#5e5e5e"/><path d="M500.8 779.18h199.04m-199.04 0h-.64" stroke="#5e5e5e" stroke-width="1.56" fill-opacity="0"/><path d="M715.2 779.18l-14.08 4.6v-9.2z" stroke="#5e5e5e" stroke-width="1.56" fill="#5e5e5e"/><path d="M760 779.18c0 11.5-8.96 20.7-19.84 20.7-11.52 0-19.84-9.2-19.84-20.7s8.32-20.7 19.84-20.7c10.88 0 19.84 9.2 19.84 20.7z" stroke="#5e5e5e" stroke-width="2.34" fill="#fff"/><path d="M737.6 778.26v-1.84h5.12v1.84h-5.12" stroke="#000" stroke-opacity="0" stroke-width=".05" fill="#333"/><path d="M760 719.38c0 11.5-8.96 20.7-19.84 20.7-11.52 0-19.84-9.2-19.84-20.7s8.32-20.7 19.84-20.7c10.88 0 19.84 9.2 19.84 20.7z" stroke="#5e5e5e" stroke-width="2.34" fill="#fff"/><path d="M737.6 718.46v-1.84h5.12v1.84h-5.12" stroke="#000" stroke-opacity="0" stroke-width=".05" fill="#333"/><path d="M500.8 600.24l207.36 95.68M500.8 600.24l-.64-.46" stroke="#5e5e5e" stroke-width="1.56" fill-opacity="0"/><path d="M722.24 702.36l-15.36-1.84 3.84-8.28z" stroke="#5e5e5e" stroke-width="1.56" fill="#5e5e5e"/><path d="M500.8 660.04l207.36 95.68M500.8 660.04l-.64-.46" stroke="#5e5e5e" stroke-width="1.56" fill-opacity="0"/><path d="M721.6 762.16l-14.72-1.84 3.84-8.28z" stroke="#5e5e5e" stroke-width="1.56" fill="#5e5e5e"/><path d="M121.28 838.98l210.56-209.76M121.28 838.98l-.64.46" stroke="#5e5e5e" stroke-width="1.56" fill-opacity="0"/><path d="M342.72 618.64l-7.04 13.34-6.4-6.44z" stroke="#5e5e5e" stroke-width="1.56" fill="#5e5e5e"/><path d="M125.76 899.24L334.4 690.4M125.76 899.24l-.64.92" stroke="#5e5e5e" stroke-width="1.56" fill-opacity="0"/><path d="M345.28 679.36l-7.04 13.34-6.4-6.44z" stroke="#5e5e5e" stroke-width="1.56" fill="#5e5e5e"/><path d="M127.04 958.12L334.4 752.04M127.04 958.12l-.64.92" stroke="#5e5e5e" stroke-width="1.56" fill-opacity="0"/><path d="M345.28 741.46l-7.04 13.34-6.4-6.44z" stroke="#5e5e5e" stroke-width="1.56" fill="#5e5e5e"/><path d="M127.04 1018.84L334.4 810m-207.36 208.84l-.64.46" stroke="#5e5e5e" stroke-width="1.56" fill-opacity="0"/><path d="M345.28 798.96l-7.04 13.34-6.4-6.44z" stroke="#5e5e5e" stroke-width="1.56" fill="#5e5e5e"/><path d="M500.8 718.92l205.44-96.6m-205.44 96.6l-.64.46" stroke="#5e5e5e" stroke-width="1.56" fill-opacity="0"/><path d="M720.32 615.42L709.44 626l-3.84-8.28z" stroke="#5e5e5e" stroke-width="1.56" fill="#5e5e5e"/><path d="M500.8 778.72l206.08-97.52M500.8 778.72l-.64.46" stroke="#5e5e5e" stroke-width="1.56" fill-opacity="0"/><path d="M720.32 674.76l-10.88 10.58-3.84-8.74z" stroke="#5e5e5e" stroke-width="1.56" fill="#5e5e5e"/><path d="M382.4 600.7h100.48" stroke="#5e5e5e" stroke-width="1.56" fill-opacity="0"/><path d="M382.4 601.62h-1.28l.64-.92-.64-.92h1.28z" stroke="#000" stroke-opacity="0" stroke-width=".78" fill="#5e5e5e"/><path d="M498.24 600.7l-14.08 4.6v-9.2z" stroke="#5e5e5e" stroke-width="1.56" fill="#5e5e5e"/><path d="M382.4 659.58h99.2" stroke="#5e5e5e" stroke-width="1.56" fill-opacity="0"/><path d="M382.4 660.5h-1.28l.64-.92-.64-.92h1.28z" stroke="#000" stroke-opacity="0" stroke-width=".78" fill="#5e5e5e"/><path d="M496.96 659.58l-14.72 4.6v-9.2z" stroke="#5e5e5e" stroke-width="1.56" fill="#5e5e5e"/><path d="M382.4 721.22l99.2-1.38" stroke="#5e5e5e" stroke-width="1.56" fill-opacity="0"/><path d="M382.4 722.6h-1.28l.64-.92-.64-1.38h1.28z" stroke="#000" stroke-opacity="0" stroke-width=".78" fill="#5e5e5e"/><path d="M496.96 719.38l-14.08 5.06-.64-9.2z" stroke="#5e5e5e" stroke-width="1.56" fill="#5e5e5e"/><path d="M382.4 779.18h99.2" stroke="#5e5e5e" stroke-width="1.56" fill-opacity="0"/><path d="M382.4 780.1h-1.28l.64-.92-.64-.92h1.28z" stroke="#000" stroke-opacity="0" stroke-width=".78" fill="#5e5e5e"/><path d="M496.96 779.18l-14.72 4.6v-9.2z" stroke="#5e5e5e" stroke-width="1.56" fill="#5e5e5e"/><path d="M502.72 839.44h197.12" stroke="#5e5e5e" stroke-width="1.56" fill-opacity="0"/><path d="M502.72 840.36h-1.28v-1.84h1.28z" stroke="#000" stroke-opacity="0" stroke-width=".78" fill="#5e5e5e"/><path d="M715.2 839.44l-14.08 4.6v-9.2z" stroke="#5e5e5e" stroke-width="1.56" fill="#5e5e5e"/><path d="M502.72 898.32h197.12" stroke="#5e5e5e" stroke-width="1.56" fill-opacity="0"/><path d="M502.72 899.7h-1.28v-2.3h1.28z" stroke="#000" stroke-opacity="0" stroke-width=".78" fill="#5e5e5e"/><path d="M715.2 898.32l-14.08 5.06v-9.66z" stroke="#5e5e5e" stroke-width="1.56" fill="#5e5e5e"/><path d="M760 898.32c0 11.5-8.96 20.7-19.84 20.7-11.52 0-19.84-9.2-19.84-20.7 0-11.04 8.32-20.24 19.84-20.24 10.88 0 19.84 9.2 19.84 20.24z" stroke="#5e5e5e" stroke-width="2.34" fill="#fff"/><path d="M740.8 896.02v4.6h-1.92v-4.6h-4.48v-1.38h4.48v-5.06h1.92v5.06h4.48v1.38h-4.48" stroke="#000" stroke-opacity="0" stroke-width=".05" fill="#333"/><path d="M760 839.44c0 11.5-8.96 20.7-19.84 20.7-11.52 0-19.84-9.2-19.84-20.7s8.32-20.7 19.84-20.7c10.88 0 19.84 9.2 19.84 20.7z" stroke="#5e5e5e" stroke-width="2.34" fill="#fff"/><path d="M740.8 837.14v4.6h-1.92v-4.6h-4.48v-1.84h4.48v-4.6h1.92v4.6h4.48v1.84h-4.48" stroke="#000" stroke-opacity="0" stroke-width=".05" fill="#333"/><path d="M502.72 959.04H609.6l.64-.46v-.46h89.6" stroke="#5e5e5e" stroke-width="1.56" fill-opacity="0"/><path d="M502.72 959.96h-1.28v-1.84h1.28z" stroke="#000" stroke-opacity="0" stroke-width=".78" fill="#5e5e5e"/><path d="M715.2 958.12l-14.08 4.6v-9.2z" stroke="#5e5e5e" stroke-width="1.56" fill="#5e5e5e"/><path d="M502.72 1017.92h197.12" stroke="#5e5e5e" stroke-width="1.56" fill-opacity="0"/><path d="M502.72 1018.84h-1.28V1017h1.28z" stroke="#000" stroke-opacity="0" stroke-width=".78" fill="#5e5e5e"/><path d="M715.2 1017.92l-14.08 4.6v-9.2z" stroke="#5e5e5e" stroke-width="1.56" fill="#5e5e5e"/><path d="M760 1017.92c0 11.5-8.96 20.7-19.84 20.7-11.52 0-19.84-9.2-19.84-20.7s8.32-20.7 19.84-20.7c10.88 0 19.84 9.2 19.84 20.7z" stroke="#5e5e5e" stroke-width="2.34" fill="#fff"/><path d="M737.6 1017v-1.84h5.12v1.84h-5.12" stroke="#000" stroke-opacity="0" stroke-width=".05" fill="#333"/><path d="M760 958.12c0 11.5-8.96 20.7-19.84 20.7-11.52 0-19.84-9.2-19.84-20.7 0-11.04 8.32-20.24 19.84-20.24 10.88 0 19.84 9.2 19.84 20.24z" stroke="#5e5e5e" stroke-width="2.34" fill="#fff"/><path d="M737.6 957.2v-1.84h5.12v1.84h-5.12" stroke="#000" stroke-opacity="0" stroke-width=".05" fill="#333"/><path d="M502.72 839.9l205.44 94.76" stroke="#5e5e5e" stroke-width="1.56" fill-opacity="0"/><path d="M502.72 838.98l-.64 1.84-.64-.46v-1.84z" stroke="#000" stroke-opacity="0" stroke-width=".78" fill="#5e5e5e"/><path d="M722.24 941.1l-15.36-1.84 3.84-8.28z" stroke="#5e5e5e" stroke-width="1.56" fill="#5e5e5e"/><path d="M502.08 898.78l206.08 95.68" stroke="#5e5e5e" stroke-width="1.56" fill-opacity="0"/><path d="M502.72 897.86l-.64 1.84h-.64v-2.3z" stroke="#000" stroke-opacity="0" stroke-width=".78" fill="#5e5e5e"/><path d="M721.6 1000.9l-14.72-1.84 3.84-8.28z" stroke="#5e5e5e" stroke-width="1.56" fill="#5e5e5e"/><path d="M502.08 958.58l204.16-97.52" stroke="#5e5e5e" stroke-width="1.56" fill-opacity="0"/><path d="M502.72 959.5l-1.28.46v-2.3h.64z" stroke="#000" stroke-opacity="0" stroke-width=".78" fill="#5e5e5e"/><path d="M720.32 854.62l-10.88 10.12-3.84-8.28z" stroke="#5e5e5e" stroke-width="1.56" fill="#5e5e5e"/><path d="M502.08 1017.46l204.8-97.06" stroke="#5e5e5e" stroke-width="1.56" fill-opacity="0"/><path d="M502.72 1018.38l-1.28.92v-2.3l.64-.46z" stroke="#000" stroke-opacity="0" stroke-width=".78" fill="#5e5e5e"/><path d="M720.32 913.96l-10.88 10.12-3.84-8.28z" stroke="#5e5e5e" stroke-width="1.56" fill="#5e5e5e"/><path d="M500.16 839.44c0 11.5-8.96 20.7-19.84 20.7-11.52 0-20.48-9.2-20.48-20.7s8.96-20.7 20.48-20.7c10.88 0 19.84 9.2 19.84 20.7z" stroke="#5e5e5e" stroke-width="2.34" fill="#fff"/><path d="M480.32 831.62l3.2-1.38.64 1.38-3.2.92 1.92 2.76-1.28.92-1.28-2.76-1.92 2.76-1.28-.92 1.92-2.76-3.2-.92.64-1.38 3.2 1.38-.64-3.22h1.92" stroke="#000" stroke-opacity="0" stroke-width=".05" fill="#333"/><path d="M500.16 898.32c0 11.5-8.96 20.7-19.84 20.7-11.52 0-20.48-9.2-20.48-20.7 0-11.04 8.96-20.24 20.48-20.24 10.88 0 19.84 9.2 19.84 20.24z" stroke="#5e5e5e" stroke-width="2.34" fill="#fff"/><path d="M480.32 890.5l3.2-.92.64 1.38-3.2.46 1.92 2.76-1.28.92-1.28-2.76-1.92 2.76-1.28-.92 1.92-2.76-3.2-.46.64-1.38 3.2.92-.64-3.22h1.92" stroke="#000" stroke-opacity="0" stroke-width=".05" fill="#333"/><path d="M500.16 959.04c0 11.5-8.96 20.7-19.84 20.7-11.52 0-20.48-9.2-20.48-20.7s8.96-20.7 20.48-20.7c10.88 0 19.84 9.2 19.84 20.7z" stroke="#5e5e5e" stroke-width="2.34" fill="#fff"/><path d="M480.32 950.76l3.2-.92.64 1.38-3.2.92 1.92 2.76-1.28.46-1.28-2.76-1.92 2.76-1.28-.46 1.92-2.76-3.2-.92.64-1.38 3.2 1.38-.64-3.22h1.92" stroke="#000" stroke-opacity="0" stroke-width=".05" fill="#333"/><path d="M500.16 1017.92c0 11.5-8.96 20.7-19.84 20.7-11.52 0-20.48-9.2-20.48-20.7s8.96-20.7 20.48-20.7c10.88 0 19.84 9.2 19.84 20.7z" stroke="#5e5e5e" stroke-width="2.34" fill="#fff"/><path d="M480.32 1010.1l3.2-1.38.64 1.38-3.2.92 1.92 2.76-1.28.92-1.28-2.76-1.92 2.76-1.28-.92 1.92-2.76-3.2-.92.64-1.38 3.2 1.38-.64-3.22h1.92" stroke="#000" stroke-opacity="0" stroke-width=".05" fill="#333"/><path d="M382.4 1019.3H440" stroke="#5e5e5e" stroke-width="1.56" fill-opacity="0"/><path d="M382.4 1020.22h-1.28l.64-.92-.64-.92h1.28z" stroke="#000" stroke-opacity="0" stroke-width=".78" fill="#5e5e5e"/><path d="M455.36 1019.3l-14.08 4.6v-9.2z" stroke="#5e5e5e" stroke-width="1.56" fill="#5e5e5e"/><path d="M382.4 959.04H440" stroke="#5e5e5e" stroke-width="1.56" fill-opacity="0"/><path d="M382.4 959.96h-1.28l.64-.92-.64-.92h1.28z" stroke="#000" stroke-opacity="0" stroke-width=".78" fill="#5e5e5e"/><path d="M455.36 959.04l-14.08 4.6v-9.2z" stroke="#5e5e5e" stroke-width="1.56" fill="#5e5e5e"/><path d="M382.4 900.16H440" stroke="#5e5e5e" stroke-width="1.56" fill-opacity="0"/><path d="M382.4 901.08h-1.28l.64-.92-.64-1.38h1.28z" stroke="#000" stroke-opacity="0" stroke-width=".78" fill="#5e5e5e"/><path d="M455.36 900.16l-14.08 4.6v-9.66z" stroke="#5e5e5e" stroke-width="1.56" fill="#5e5e5e"/><path d="M382.4 839.44H440" stroke="#5e5e5e" stroke-width="1.56" fill-opacity="0"/><path d="M382.4 840.36h-1.28l.64-.92-.64-.92h1.28z" stroke="#000" stroke-opacity="0" stroke-width=".78" fill="#5e5e5e"/><path d="M455.36 839.44l-14.08 4.6v-9.2z" stroke="#5e5e5e" stroke-width="1.56" fill="#5e5e5e"/><path d="M762.13 600H881.5" stroke="#5e5e5e" stroke-width="2" fill="none"/><path d="M762.16 601h-1.02l.04-.27-.1-1.73h1.08z" fill="#5e5e5e"/><path d="M896.76 600l-14.26 4.64v-9.28z" stroke="#5e5e5e" stroke-width="2" fill="#5e5e5e"/><path d="M762.13 660h120.9" stroke="#5e5e5e" stroke-width="2" fill="none"/><path d="M762.16 661H761l.18-1.4-.04-.6h1.02z" fill="#5e5e5e"/><path d="M898.3 660L884 664.64v-9.28z" stroke="#5e5e5e" stroke-width="2" fill="#5e5e5e"/><path d="M762.1 720H840" stroke="#5e5e5e" stroke-width="2" fill="none"/><path d="M762.13 721H761l.18-1.6-.03-.4h.98z" fill="#5e5e5e"/><path d="M855.26 720L841 724.64v-9.28z" stroke="#5e5e5e" stroke-width="2" fill="#5e5e5e"/><path d="M900 720c0 11.44-8.95 20.7-20 20.7s-20-9.26-20-20.7 8.95-20.7 20-20.7 20 9.26 20 20.7z" stroke="#5e5e5e" stroke-width="3" fill="#fff"/><use xlink:href="#c" transform="matrix(1,0,0,1,865,704.2913385826772) translate(10.679012345679013 19.77777777777778)"/><path d="M900 780c0 11.05-8.95 20-20 20s-20-8.95-20-20 8.95-20 20-20 20 8.95 20 20z" stroke="#5e5e5e" stroke-width="3" fill="#fff"/><use xlink:href="#c" transform="matrix(1,0,0,1,865,765) translate(10.684012345679013 17.77777777777778)"/><path d="M762.17 779.04l77.83.78" stroke="#5e5e5e" stroke-width="2" fill="none"/><path d="M762.2 778.04l-.02 2h-1.1l.1-.83-.08-1.17z" fill="#5e5e5e"/><path d="M855.26 779.97l-14.3 4.5.08-9.28z" stroke="#5e5e5e" stroke-width="2" fill="#5e5e5e"/><path d="M762.13 840H881.5M762.16 840h-1.03" stroke="#5e5e5e" stroke-width="2" fill="none"/><path d="M896.76 840l-14.26 4.64v-9.28z" stroke="#5e5e5e" stroke-width="2" fill="#5e5e5e"/><path d="M762.13 900H881.5M762.16 900h-1.03" stroke="#5e5e5e" stroke-width="2" fill="none"/><path d="M896.76 900l-14.26 4.64v-9.28z" stroke="#5e5e5e" stroke-width="2" fill="#5e5e5e"/><path d="M762.1 960H840M762.13 960h-1.02" stroke="#5e5e5e" stroke-width="2" fill="none"/><path d="M855.26 960L841 964.64v-9.28z" stroke="#5e5e5e" stroke-width="2" fill="#5e5e5e"/><path d="M900 960c0 11.44-8.95 20.7-20 20.7s-20-9.26-20-20.7 8.95-20.7 20-20.7 20 9.26 20 20.7z" stroke="#5e5e5e" stroke-width="3" fill="#fff"/><use xlink:href="#c" transform="matrix(1,0,0,1,865,944.2913385826771) translate(10.679012345679013 19.77777777777778)"/><path d="M900 1020c0 11.05-8.95 20-20 20s-20-8.95-20-20 8.95-20 20-20 20 8.95 20 20z" stroke="#5e5e5e" stroke-width="3" fill="#fff"/><use xlink:href="#c" transform="matrix(1,0,0,1,865,1004.9999999999998) translate(10.684012345679013 17.77777777777778)"/><path d="M762.17 1019.04l77.83.78M762.2 1019.04h-1.03" stroke="#5e5e5e" stroke-width="2" fill="none"/><path d="M855.26 1019.97l-14.3 4.5.08-9.28z" stroke="#5e5e5e" stroke-width="2" fill="#5e5e5e"/><path d="M902.48 720.2l201.43 43.3" stroke="#5e5e5e" stroke-width="2" fill="none"/><path d="M902.72 719.24l-.42 1.95-.9-.2.1-.96-.06-1.08z" fill="#5e5e5e"/><path d="M1118.83 766.7l-14.92 1.54 1.96-9.07z" stroke="#5e5e5e" stroke-width="2" fill="#5e5e5e"/><path d="M902.48 960.2l202.96 41.22" stroke="#5e5e5e" stroke-width="2" fill="none"/><path d="M902.7 959.22l-.4 1.96-.9-.18.1-.96-.06-1.07z" fill="#5e5e5e"/><path d="M1120.4 1004.46l-14.9 1.7 1.84-9.08z" stroke="#5e5e5e" stroke-width="2" fill="#5e5e5e"/><path d="M1161 661.42h77.9M1161.03 661.42H1160" stroke="#5e5e5e" stroke-width="2" fill="none"/><path d="M1254.16 661.42l-14.27 4.63v-9.27z" stroke="#5e5e5e" stroke-width="2" fill="#5e5e5e"/><path d="M1298.9 661.42c0 11.43-8.96 20.7-20 20.7-11.05 0-20-9.27-20-20.7 0-11.44 8.95-20.7 20-20.7 11.04 0 20 9.26 20 20.7z" stroke="#5e5e5e" stroke-width="3" fill="#fff"/><use xlink:href="#c" transform="matrix(1,0,0,1,1263.8943748238307,645.7086614173228) translate(10.679012345679013 19.77777777777778)"/><path d="M1161 780.7h77.9M1161.03 780.7H1160" stroke="#5e5e5e" stroke-width="2" fill="none"/><path d="M1254.16 780.7l-14.27 4.64v-9.27z" stroke="#5e5e5e" stroke-width="2" fill="#5e5e5e"/><path d="M1298.9 780.7c0 11.45-8.96 20.72-20 20.72-11.05 0-20-9.27-20-20.7 0-11.45 8.95-20.72 20-20.72 11.04 0 20 9.27 20 20.7z" stroke="#5e5e5e" stroke-width="3" fill="#fff"/><use xlink:href="#c" transform="matrix(1,0,0,1,1263.8943748238307,765.0000000677393) translate(10.679012345679013 19.77777777777778)"/><path d="M1161 900.7h77.9M1161.03 900.7H1160" stroke="#5e5e5e" stroke-width="2" fill="none"/><path d="M1254.16 900.7l-14.27 4.64v-9.27z" stroke="#5e5e5e" stroke-width="2" fill="#5e5e5e"/><path d="M1298.9 900.7c0 11.45-8.96 20.72-20 20.72-11.05 0-20-9.27-20-20.7 0-11.45 8.95-20.72 20-20.72 11.04 0 20 9.27 20 20.7z" stroke="#5e5e5e" stroke-width="3" fill="#fff"/><use xlink:href="#c" transform="matrix(1,0,0,1,1263.8943748238307,885.0000000000001) translate(10.679012345679013 19.77777777777778)"/><path d="M1161 1020.7h77.9M1161.03 1020.7H1160" stroke="#5e5e5e" stroke-width="2" fill="none"/><path d="M1254.16 1020.7l-14.27 4.64v-9.27z" stroke="#5e5e5e" stroke-width="2" fill="#5e5e5e"/><path d="M1298.9 1020.7c0 11.45-8.96 20.72-20 20.72-11.05 0-20-9.27-20-20.7 0-11.45 8.95-20.72 20-20.72 11.04 0 20 9.27 20 20.7z" stroke="#5e5e5e" stroke-width="3" fill="#fff"/><use xlink:href="#c" transform="matrix(1,0,0,1,1263.8943748238307,1005.0000000677393) translate(10.679012345679013 19.77777777777778)"/><path d="M1162.5 600h117.87" stroke="#5e5e5e" stroke-width="2" fill="none"/><path d="M1162.53 601h-1.14l.1-.96-.06-1.04h1.1z" fill="#5e5e5e"/><path d="M1295.63 600l-14.26 4.64v-9.28z" stroke="#5e5e5e" stroke-width="2" fill="#5e5e5e"/><path d="M1162.43 720h117.96" stroke="#5e5e5e" stroke-width="2" fill="none"/><path d="M1162.45 721h-1.15l.2-1.66V719h.95z" fill="#5e5e5e"/><path d="M1295.66 720l-14.27 4.64v-9.28z" stroke="#5e5e5e" stroke-width="2" fill="#5e5e5e"/><path d="M1162.5 840h117.87" stroke="#5e5e5e" stroke-width="2" fill="none"/><path d="M1162.53 841h-1.14l.1-.96-.06-1.04h1.1z" fill="#5e5e5e"/><path d="M1295.63 840l-14.26 4.64v-9.28z" stroke="#5e5e5e" stroke-width="2" fill="#5e5e5e"/><path d="M1162.5 960h119" stroke="#5e5e5e" stroke-width="2" fill="none"/><path d="M1162.53 961h-1.14l.1-.96-.06-1.04h1.1z" fill="#5e5e5e"/><path d="M1296.76 960l-14.26 4.64v-9.28z" stroke="#5e5e5e" stroke-width="2" fill="#5e5e5e"/><defs><path fill="#333" d="M16-82v-28h88v28H16" id="d"/><use transform="matrix(0.06172839506172839,0,0,0.06172839506172839,0,0)" xlink:href="#d" id="a"/><path fill="#333" d="M118-107v75H92v-75H18v-26h74v-75h26v75h74v26h-74" id="e"/><use transform="matrix(0.06172839506172839,0,0,0.06172839506172839,0,0)" xlink:href="#e" id="b"/><path fill="#333" d="M80-196l47-18 7 23-49 13 32 44-20 13-27-46-27 45-21-12 33-44-49-13 8-23 47 19-2-53h23" id="f"/><use transform="matrix(0.06172839506172839,0,0,0.06172839506172839,0,0)" xlink:href="#f" id="c"/></defs></g></svg>