<svg xmlns="http://www.w3.org/2000/svg" xmlns:xlink="http://www.w3.org/1999/xlink" xmlns:lucid="lucid" width="540" height="320"><g transform="translate(-720 -520)" lucid:page-tab-id="0_0"><path d="M740 546c0-3.3 2.7-6 6-6h103.38c3.32 0 6 2.7 6 6v41.33c0 3.32-2.68 6-6 6H746c-3.3 0-6-2.68-6-6z" stroke="#5e5e5e" stroke-width="3" fill="#fff"/><use xlink:href="#a" transform="matrix(1,0,0,1,745,545) translate(5.5308641975308745 26.02777777777778)"/><use xlink:href="#b" transform="matrix(1,0,0,1,745,545) translate(75.77777777777777 26.02777777777778)"/><path d="M740 612.67c0-3.32 2.7-6 6-6h103.38c3.32 0 6 2.68 6 6V654c0 3.3-2.68 6-6 6H746c-3.3 0-6-2.7-6-6z" stroke="#5e5e5e" stroke-width="3" fill="#fff"/><use xlink:href="#a" transform="matrix(1,0,0,1,745,611.6666666666279) translate(5.5308641975308745 26.02777777777778)"/><use xlink:href="#c" transform="matrix(1,0,0,1,745,611.6666666666279) translate(75.77777777777777 26.02777777777778)"/><path d="M740 772.67c0-3.32 2.7-6 6-6h103.38c3.32 0 6 2.68 6 6V814c0 3.3-2.68 6-6 6H746c-3.3 0-6-2.7-6-6z" stroke="#5e5e5e" stroke-width="3" fill="#fff"/><use xlink:href="#d" transform="matrix(1,0,0,1,745,771.6666666666279) translate(20.96296296296297 17.77777777777778)"/><use xlink:href="#e" transform="matrix(1,0,0,1,745,771.6666666666279) translate(34.48148148148148 44.44444444444444)"/><path d="M913.08 546c0-3.3 2.68-6 6-6H1234c3.3 0 6 2.7 6 6v268c0 3.3-2.7 6-6 6H919.08c-3.32 0-6-2.7-6-6z" stroke="#5e5e5e" stroke-width="3" fill="#fff"/><use xlink:href="#f" transform="matrix(1,0,0,1,918.0769230768966,545.0000000000385) translate(71.0308641975309 90.60243055555554)"/><use xlink:href="#g" transform="matrix(1,0,0,1,918.0769230768966,545.0000000000385) translate(147.57407407407408 90.60243055555554)"/><use xlink:href="#h" transform="matrix(1,0,0,1,918.0769230768966,545.0000000000385) translate(82.69753086419756 143.93576388888886)"/><use xlink:href="#i" transform="matrix(1,0,0,1,918.0769230768966,545.0000000000385) translate(144.42592592592592 143.93576388888886)"/><use xlink:href="#j" transform="matrix(1,0,0,1,918.0769230768966,545.0000000000385) translate(68.6234567901235 197.26909722222217)"/><use xlink:href="#k" transform="matrix(1,0,0,1,918.0769230768966,545.0000000000385) translate(169.73456790123456 197.26909722222217)"/><path d="M857.88 566.67h26.33c.02 0 .03 0 .03-.02 0 0 0-.02.02-.02h8.83" stroke="#5e5e5e" stroke-width="2" fill="none"/><path d="M857.9 567.67h-1.02v-2h1.03z" fill="#5e5e5e"/><path d="M908.34 566.63l-14.26 4.63V562z" stroke="#5e5e5e" stroke-width="2" fill="#5e5e5e"/><path d="M857.88 633.33h35.2" stroke="#5e5e5e" stroke-width="2" fill="none"/><path d="M857.9 634.33h-1.02v-2h1.03z" fill="#5e5e5e"/><path d="M908.34 633.32l-14.26 4.63v-9.27z" stroke="#5e5e5e" stroke-width="2" fill="#5e5e5e"/><path d="M857.88 793.33h26.33c.02 0 .03 0 .03.02 0 0 0 .02.02.02h8.83" stroke="#5e5e5e" stroke-width="2" fill="none"/><path d="M857.9 794.33h-1.02v-2h1.03z" fill="#5e5e5e"/><path d="M908.34 793.37L894.08 798v-9.26z" stroke="#5e5e5e" stroke-width="2" fill="#5e5e5e"/><path d="M910.58 680h-20.35c-3.3 0-6-2.7-6-6V572.67c0-3.32-2.7-6-6-6h-2.84" stroke="#5e5e5e" stroke-width="2" fill="none"/><path d="M911.58 681h-1.03v-2h1.03z" fill="#5e5e5e"/><path d="M860.12 566.67l14.27-4.64v9.27z" stroke="#5e5e5e" stroke-width="2" fill="#5e5e5e"/><path d="M910.58 680h-20.35c-3.3 0-6-2.7-6-6v-34.67c0-3.3-2.7-6-6-6h-2.84" stroke="#5e5e5e" stroke-width="2" fill="none"/><path d="M911.58 681h-1.03v-2h1.03z" fill="#5e5e5e"/><path d="M860.12 633.33l14.27-4.63v9.27z" stroke="#5e5e5e" stroke-width="2" fill="#5e5e5e"/><path d="M910.58 680h-20.35c-3.3 0-6 2.7-6 6v101.33c0 3.32-2.7 6-6 6h-2.84" stroke="#5e5e5e" stroke-width="2" fill="none"/><path d="M911.58 681h-1.03v-2h1.03z" fill="#5e5e5e"/><path d="M860.12 793.33l14.27-4.63v9.27z" stroke="#5e5e5e" stroke-width="2" fill="#5e5e5e"/><path d="M787.7 679.33c0-3.3 2.68-6 6-6h8c3.3 0 6 2.7 6 6v8c0 3.32-2.7 6-6 6h-8c-3.32 0-6-2.68-6-6zM787.7 712.67c0-3.32 2.68-6 6-6h8c3.3 0 6 2.68 6 6v8c0 3.3-2.7 6-6 6h-8c-3.32 0-6-2.7-6-6zM787.7 746c0-3.3 2.68-6 6-6h8c3.3 0 6 2.7 6 6v8c0 3.3-2.7 6-6 6h-8c-3.32 0-6-2.7-6-6z" stroke="#5e5e5e" stroke-width="3" fill="#fff"/><defs><path fill="#333" d="M160-131c35 5 61 23 61 61C221 17 115-2 30 0v-248c76 3 177-17 177 60 0 33-19 50-47 57zm-97-11c50-1 110 9 110-42 0-47-63-36-110-37v79zm0 115c55-2 124 14 124-45 0-56-70-42-124-44v89" id="l"/><path fill="#333" d="M233-177c-1 41-23 64-60 70L243 0h-38l-65-103H63V0H30v-248c88 3 205-21 203 71zM63-129c60-2 137 13 137-47 0-61-80-42-137-45v92" id="m"/><path fill="#333" d="M205 0l-28-72H64L36 0H1l101-248h38L239 0h-34zm-38-99l-47-123c-12 45-31 82-46 123h93" id="n"/><path fill="#333" d="M240 0l2-218c-23 76-54 145-80 218h-23L58-218 59 0H30v-248h44l77 211c21-75 51-140 76-211h43V0h-30" id="o"/><g id="a"><use transform="matrix(0.06172839506172839,0,0,0.06172839506172839,0,0)" xlink:href="#l"/><use transform="matrix(0.06172839506172839,0,0,0.06172839506172839,14.814814814814813,0)" xlink:href="#m"/><use transform="matrix(0.06172839506172839,0,0,0.06172839506172839,30.80246913580247,0)" xlink:href="#n"/><use transform="matrix(0.06172839506172839,0,0,0.06172839506172839,45.61728395061728,0)" xlink:href="#o"/></g><path fill="#333" d="M158-156l-14 65h45v19h-49L124 0h-19l15-72H56L41 0H22l15-72H2v-19h39l14-65H11v-19h48l15-71h20l-16 71h64l16-71h19l-16 71h37v19h-40zm-83 0L61-91h63l14-65H75" id="p"/><path fill="#333" d="M101-251c68 0 85 55 85 127S166 4 100 4C33 4 14-52 14-124c0-73 17-127 87-127zm-1 229c47 0 54-49 54-102s-4-102-53-102c-51 0-55 48-55 102 0 53 5 102 54 102" id="q"/><g id="b"><use transform="matrix(0.06172839506172839,0,0,0.06172839506172839,0,0)" xlink:href="#p"/><use transform="matrix(0.06172839506172839,0,0,0.06172839506172839,12.345679012345679,0)" xlink:href="#q"/></g><path fill="#333" d="M27 0v-27h64v-190l-56 39v-29l58-41h29v221h61V0H27" id="r"/><g id="c"><use transform="matrix(0.06172839506172839,0,0,0.06172839506172839,0,0)" xlink:href="#p"/><use transform="matrix(0.06172839506172839,0,0,0.06172839506172839,12.345679012345679,0)" xlink:href="#r"/></g><g id="d"><use transform="matrix(0.06172839506172839,0,0,0.06172839506172839,0,0)" xlink:href="#l"/><use transform="matrix(0.06172839506172839,0,0,0.06172839506172839,14.814814814814813,0)" xlink:href="#m"/><use transform="matrix(0.06172839506172839,0,0,0.06172839506172839,30.80246913580247,0)" xlink:href="#n"/><use transform="matrix(0.06172839506172839,0,0,0.06172839506172839,45.61728395061728,0)" xlink:href="#o"/></g><path fill="#333" d="M110-160c48 1 74 30 74 79 0 53-28 85-80 85-65 0-83-55-86-122-5-90 50-162 133-122 14 7 22 21 27 39l-31 6c-5-40-67-38-82-6-9 19-15 44-15 74 11-20 30-34 60-33zm-7 138c34 0 49-23 49-58s-16-56-50-56c-29 0-50 16-49 49 1 36 15 65 50 65" id="s"/><path fill="#333" d="M126-127c33 6 58 20 58 59 0 88-139 92-164 29-3-8-5-16-6-25l32-3c6 27 21 44 54 44 32 0 52-15 52-46 0-38-36-46-79-43v-28c39 1 72-4 72-42 0-27-17-43-46-43-28 0-47 15-49 41l-32-3c6-42 35-63 81-64 48-1 79 21 79 65 0 36-21 52-52 59" id="t"/><g id="e"><use transform="matrix(0.06172839506172839,0,0,0.06172839506172839,0,0)" xlink:href="#p"/><use transform="matrix(0.06172839506172839,0,0,0.06172839506172839,12.345679012345679,0)" xlink:href="#s"/><use transform="matrix(0.06172839506172839,0,0,0.06172839506172839,24.691358024691358,0)" xlink:href="#t"/></g><path fill="#333" d="M143 4C61 4 22-44 18-125c-5-107 100-154 193-111 17 8 29 25 37 43l-32 9c-13-25-37-40-76-40-61 0-88 39-88 99 0 61 29 100 91 101 35 0 62-11 79-27v-45h-74v-28h105v86C228-13 192 4 143 4" id="u"/><path fill="#333" d="M185-189c-5-48-123-54-124 2 14 75 158 14 163 119 3 78-121 87-175 55-17-10-28-26-33-46l33-7c5 56 141 63 141-1 0-78-155-14-162-118-5-82 145-84 179-34 5 7 8 16 11 25" id="v"/><g id="f"><use transform="matrix(0.12345679012345674,0,0,0.12345679012345674,0,0)" xlink:href="#u"/><use transform="matrix(0.12345679012345674,0,0,0.12345679012345674,34.567901234567884,0)" xlink:href="#v"/></g><path fill="#333" d="M33 0v-248h34V0H33" id="w"/><path fill="#333" d="M190 0L58-211 59 0H30v-248h39L202-35l-2-213h31V0h-41" id="x"/><path fill="#333" d="M127-220V0H93v-220H8v-28h204v28h-85" id="y"/><g id="g"><use transform="matrix(0.12345679012345674,0,0,0.12345679012345674,0,0)" xlink:href="#w"/><use transform="matrix(0.12345679012345674,0,0,0.12345679012345674,12.345679012345673,0)" xlink:href="#x"/><use transform="matrix(0.12345679012345674,0,0,0.12345679012345674,44.32098765432097,0)" xlink:href="#y"/><use transform="matrix(0.12345679012345674,0,0,0.12345679012345674,71.358024691358,0)" xlink:href="#y"/></g><path fill="#333" d="M101-251c82-7 93 87 43 132L82-64C71-53 59-42 53-27h129V0H18c2-99 128-94 128-182 0-28-16-43-45-43s-46 15-49 41l-32-3c6-41 34-60 81-64" id="z"/><g id="h"><use transform="matrix(0.12345679012345674,0,0,0.12345679012345674,0,0)" xlink:href="#t"/><use transform="matrix(0.12345679012345674,0,0,0.12345679012345674,24.691358024691347,0)" xlink:href="#z"/></g><path fill="#333" d="M30-248c87 1 191-15 191 75 0 78-77 80-158 76V0H30v-248zm33 125c57 0 124 11 124-50 0-59-68-47-124-48v98" id="A"/><path fill="#333" d="M30 0v-248h187v28H63v79h144v27H63v87h162V0H30" id="B"/><path fill="#333" d="M47-170H22l-4-78h33" id="C"/><path fill="#333" d="M135-143c-3-34-86-38-87 0 15 53 115 12 119 90S17 21 10-45l28-5c4 36 97 45 98 0-10-56-113-15-118-90-4-57 82-63 122-42 12 7 21 19 24 35" id="D"/><g id="i"><use transform="matrix(0.12345679012345674,0,0,0.12345679012345674,0,0)" xlink:href="#A"/><use transform="matrix(0.12345679012345674,0,0,0.12345679012345674,29.62962962962962,0)" xlink:href="#B"/><use transform="matrix(0.12345679012345674,0,0,0.12345679012345674,59.25925925925924,0)" xlink:href="#C"/><use transform="matrix(0.12345679012345674,0,0,0.12345679012345674,67.6543209876543,0)" xlink:href="#D"/></g><path fill="#333" d="M87 75C49 33 22-17 22-94c0-76 28-126 65-167h31c-38 41-64 92-64 168S80 34 118 75H87" id="E"/><path fill="#333" d="M54-142c48-35 137-8 131 61C196 18 31 33 14-55l32-4c7 23 22 37 52 37 35-1 51-22 54-58 4-55-73-65-99-34H22l8-134h141v27H59" id="F"/><g id="j"><use transform="matrix(0.12345679012345674,0,0,0.12345679012345674,0,0)" xlink:href="#E"/><use transform="matrix(0.12345679012345674,0,0,0.12345679012345674,14.691358024691352,0)" xlink:href="#z"/><use transform="matrix(0.12345679012345674,0,0,0.12345679012345674,39.3827160493827,0)" xlink:href="#F"/><use transform="matrix(0.12345679012345674,0,0,0.12345679012345674,64.07407407407405,0)" xlink:href="#q"/></g><path fill="#333" d="M212-179c-10-28-35-45-73-45-59 0-87 40-87 99 0 60 29 101 89 101 43 0 62-24 78-52l27 14C228-24 195 4 139 4 59 4 22-46 18-125c-6-104 99-153 187-111 19 9 31 26 39 46" id="G"/><path fill="#333" d="M33-261c38 41 65 92 65 168S71 34 33 75H2C39 34 66-17 66-93S39-220 2-261h31" id="H"/><g id="k"><use transform="matrix(0.12345679012345674,0,0,0.12345679012345674,0,0)" xlink:href="#G"/><use transform="matrix(0.12345679012345674,0,0,0.12345679012345674,31.975308641975296,0)" xlink:href="#G"/><use transform="matrix(0.12345679012345674,0,0,0.12345679012345674,63.95061728395059,0)" xlink:href="#H"/></g></defs></g></svg>